<svg width="402" height="266" viewBox="0 0 402 266" fill="none" xmlns="http://www.w3.org/2000/svg">
<g clip-path="url(#clip0_440_9992)">
<path d="M156.141 408.724H105.064C105.064 408.724 115.343 289.46 114.95 287.354C114.437 284.681 95.3744 210.045 91.7189 195.936C86.2631 174.789 81.8984 158.367 81.8984 158.367H125.185C125.185 158.367 130.226 174.353 136.588 195.161C146.954 228.987 160.79 275.526 162.165 286.819C164.412 305.107 156.141 408.724 156.141 408.724Z" fill="#333F46"/>
<path d="M124.836 280.054C123.156 272.678 120.657 265.443 118.475 258.231C114.052 243.514 109.6 228.798 105.119 214.082C102.885 206.728 100.641 199.373 98.3862 192.019C97.2368 188.309 96.0875 184.602 94.9381 180.9C93.8469 177.266 92.5048 173.676 91.4791 169.988C91.0645 168.493 90.8353 169.311 91.37 171.199C92.4611 175.018 93.5523 178.837 94.6435 182.624C96.8258 190.153 99.0409 197.675 101.289 205.189C105.712 220.16 110.178 235.112 114.688 250.047C116.936 257.547 119.187 265.04 121.443 272.525C122.585 276.102 123.507 279.746 124.203 283.437C124.79 287.27 124.93 291.159 124.618 295.025C124.127 302.838 123.221 310.639 122.501 318.441C121.781 326.243 121.05 334.067 120.319 341.879C118.864 357.432 117.438 372.981 116.041 388.527C115.856 390.491 115.692 392.466 115.539 394.441C115.485 395.096 116.489 395.052 116.554 394.441C118.234 379.066 119.522 363.637 120.973 348.241C122.425 332.845 123.843 317.59 125.273 302.27C125.633 298.429 126.047 294.566 126.047 290.704C126.044 287.12 125.638 283.547 124.836 280.054Z" fill="#263238"/>
<path d="M123.832 158.367C123.832 158.367 122.828 179.099 118.093 195.467C117.711 196.82 117.296 198.162 116.849 199.439C116.849 199.439 117.514 198.915 109.974 203.53C109.974 203.53 112.888 285.892 113.008 290.824C113.433 309.21 100.067 409.488 100.067 409.488L49 409.695C49 409.695 67.2443 296.007 67.1788 289.253C67.0806 278.417 60.6318 231.344 62.6287 196.449C63.4856 183.185 67.0153 170.232 73.0057 158.367H123.832Z" fill="#333F46"/>
<path d="M76.3344 161.455C69.8747 173.873 67.4632 188.003 66.9395 201.828C66.372 216.876 68.1725 231.879 69.7547 246.817C71.4241 262.519 72.8645 278.254 71.6642 294.043C70.4639 309.832 67.6269 325.828 65.3354 341.65C63.044 357.472 60.6434 373.294 58.6793 389.16C58.4284 391.168 58.1774 393.175 57.9482 395.183C57.9482 395.292 58.0901 395.336 58.101 395.183C60.9053 379.547 63.2077 363.823 65.5973 348.121C67.987 332.419 70.6603 316.837 72.2753 301.103C73.8902 285.368 73.2137 269.753 71.6315 254.062C70.1147 238.95 68.1179 223.848 68.0633 208.637C68.0633 194.452 69.4491 180.016 74.4576 166.682C75.1232 164.914 75.8434 163.147 76.6399 161.401C76.6945 161.204 76.4653 161.193 76.3344 161.455Z" fill="#263238"/>
<path d="M119.26 198.217C114.18 200.332 109.294 202.888 104.66 205.855C104.621 205.875 104.591 205.91 104.578 205.952C104.565 205.994 104.569 206.039 104.589 206.078C104.609 206.117 104.644 206.147 104.686 206.16C104.728 206.173 104.774 206.17 104.813 206.149C109.734 203.76 114.764 201.457 119.554 198.795C119.62 198.75 119.666 198.683 119.686 198.606C119.706 198.529 119.696 198.447 119.66 198.377C119.624 198.306 119.564 198.251 119.49 198.221C119.416 198.192 119.335 198.19 119.26 198.217Z" fill="#263238"/>
<path d="M119.544 180.649C119.206 182.46 118.77 184.261 118.377 186.105C117.984 187.949 117.733 189.52 117.286 191.2C116.918 192.819 116.097 194.299 114.918 195.467C114.252 196.078 113.521 196.634 112.812 197.191C112.43 197.496 112.015 197.791 111.623 198.096C111.623 197.856 111.71 197.616 111.754 197.365C111.884 196.678 111.994 195.991 112.114 195.303C112.365 193.775 112.616 192.248 112.845 190.709C113.303 187.698 113.729 184.653 114.361 181.674C114.361 181.554 114.198 181.511 114.176 181.674C113.423 184.632 112.594 187.545 111.939 190.535C111.623 191.997 110.477 199.264 110.422 199.722C110.368 200.181 110.324 200.814 110.313 201.305C110.237 201.84 110.237 202.384 110.313 202.919C110.313 203.05 110.499 203.029 110.553 202.919C110.773 202.418 110.927 201.889 111.012 201.348C111.142 200.835 111.262 200.312 111.35 199.788C111.35 199.602 111.415 199.406 111.437 199.209C112.146 198.784 112.812 198.206 113.478 197.725C114.143 197.245 114.918 196.7 115.594 196.132C116.845 195.073 117.75 193.663 118.191 192.084C118.628 190.385 118.912 188.651 119.042 186.901C119.272 184.85 119.435 182.787 119.719 180.747C119.752 180.572 119.566 180.518 119.544 180.649Z" fill="#263238"/>
<path d="M116.117 99.5969C116.772 108.086 121.802 128.076 133.041 145.819C137.406 152.66 154.864 161.695 169.159 167.544C174.437 169.8 179.875 171.664 185.428 173.12C185.993 173.253 186.565 173.355 187.141 173.425C193.961 174.244 198.664 163.932 199.417 156.218C199.417 156.01 199.417 155.792 199.417 155.585V155.246C199.591 152.093 199.056 149.518 197.682 148.514C197.194 148.173 196.688 147.859 196.165 147.576C192.054 145.458 187.841 143.546 183.54 141.847C182.285 141.323 180.965 140.756 179.634 140.254C167.074 135.202 152.66 129.779 151.263 128.469C149.081 126.451 135.562 110.803 127.771 97.3164C122.053 87.485 115.026 85.4881 116.117 99.5969Z" fill="#943E21"/>
<path d="M169.159 167.544C174.437 169.8 179.875 171.664 185.428 173.12C192.33 174.856 199.405 175.815 206.52 175.979C210.885 175.979 223.433 174.68 223.695 171.33C223.957 167.98 220.258 168.057 220.258 168.057C220.258 168.057 225.474 166.715 225.43 163.321C225.43 160.539 221.535 160.222 220.138 160.189C220.106 160.172 220.071 160.163 220.034 160.163C219.998 160.163 219.963 160.172 219.931 160.189H219.636C219.636 160.189 224.896 158.422 224.612 155.039C224.361 152.017 219.745 152.693 218.774 152.857C219.582 152.606 223.346 151.231 222.048 148.819C220.356 145.546 211.649 149.179 206.771 148.918C206.542 148.918 205.331 148.765 203.596 148.558C200.017 145.841 195.565 143.32 193.59 142.851C190.248 142.279 186.866 141.969 183.475 141.923C182.22 141.399 180.9 140.832 179.569 140.33C176.873 143.298 168.788 153.533 169.159 167.544Z" fill="#943E21"/>
<path d="M184.633 146.102L183.607 160.779V160.833V161.161L182.821 172.29C183.667 172.625 184.535 172.902 185.418 173.12C192.324 174.857 199.402 175.816 206.521 175.979C210.886 175.979 223.435 174.68 223.696 171.33C223.958 167.98 220.259 168.057 220.259 168.057C220.259 168.057 225.475 166.715 225.431 163.321C225.431 160.539 221.536 160.222 220.139 160.189H219.637C219.637 160.189 224.897 158.422 224.613 155.039C224.362 152.017 219.746 152.693 218.775 152.857H218.644H218.742C219.55 152.606 223.314 151.231 222.016 148.819C220.325 145.546 211.617 149.18 206.74 148.918C206.511 148.918 205.299 148.765 203.564 148.558L196.177 147.652L184.633 146.102Z" fill="#943E21"/>
<path d="M202.091 154.472C204.1 155.066 206.154 155.493 208.234 155.748C211.92 156.125 215.621 155.182 218.676 153.086C218.851 152.988 218.873 152.868 218.818 152.802C218.779 152.784 218.736 152.774 218.693 152.774C218.649 152.774 218.606 152.784 218.567 152.802C215.51 154.21 212.189 154.954 208.823 154.984C206.591 154.924 204.368 154.676 202.178 154.242C201.971 154.242 201.905 154.439 202.091 154.472Z" fill="#5A3022"/>
<path d="M202.33 161.793C209.27 163.092 213.372 163.539 219.974 160.484C220.181 160.397 220.236 160.211 220.138 160.135C220.106 160.118 220.07 160.109 220.034 160.109C219.998 160.109 219.962 160.118 219.93 160.135C213.056 162.262 209.521 162.317 202.406 161.619C202.264 161.597 202.232 161.793 202.33 161.793Z" fill="#5A3022"/>
<path d="M219.68 168.144C212.85 169.737 208.976 169.988 202.145 168.395C202.114 168.391 202.082 168.399 202.056 168.417C202.03 168.435 202.011 168.461 202.003 168.492C201.995 168.523 201.999 168.555 202.013 168.583C202.027 168.612 202.051 168.634 202.08 168.646C208.878 170.948 213.722 170.675 219.702 168.362C220.117 168.199 220.106 168.046 219.68 168.144Z" fill="#5A3022"/>
<path d="M186.509 160.549C186.878 160.509 187.243 160.44 187.6 160.342L187.895 160.255C193.504 158.443 195.533 150.074 195.533 150.074C197.429 150.525 199.36 150.806 201.305 150.914C204.11 151.067 206.958 150.838 208.627 149.736C209.073 149.464 209.447 149.09 209.718 148.645C209.862 148.404 209.968 148.143 210.035 147.87C210.035 147.87 210.035 147.87 210.035 147.794C210.297 146.244 207.11 144.422 203.291 142.96C199.09 141.356 194.115 140.188 192.085 140.297C188.719 140.694 185.389 141.347 182.123 142.251C180.737 142.611 179.82 142.873 179.82 142.873C179.82 142.873 179.864 161.302 186.509 160.549Z" fill="#943E21"/>
<path d="M209.379 148.885C205.669 152.049 199.995 150.314 195.663 149.638C195.335 149.583 195.183 149.823 195.194 150.085C193.928 154.101 190.971 159.404 186.726 160.724C186.7 160.724 186.675 160.734 186.657 160.753C186.638 160.771 186.628 160.796 186.628 160.822C186.628 160.848 186.638 160.873 186.657 160.892C186.675 160.91 186.7 160.921 186.726 160.921C191.473 160.124 194.801 155.148 195.903 150.664C200.333 151.438 206.094 152.922 209.368 148.918L209.379 148.885Z" fill="#5A3022"/>
<path d="M120.952 125.468L148.057 122.424C148.057 122.424 131.264 97.5673 124.27 91.6532C116.391 84.9971 114.711 90.4747 115.442 100.262C116.173 110.05 120.952 125.468 120.952 125.468Z" fill="#0AA110"/>
<path opacity="0.1" d="M120.952 125.468L148.057 122.424C148.057 122.424 131.264 97.5673 124.27 91.6532C116.391 84.9971 114.711 90.4747 115.442 100.262C116.173 110.05 120.952 125.468 120.952 125.468Z" fill="black"/>
<path d="M135.53 123.832L121.007 125.457C121.007 125.457 116.238 110.039 115.551 100.252C115.016 93.1481 115.758 88.3033 119.239 88.7616L135.53 123.832Z" fill="#046A08"/>
<path d="M64.2216 178.368C64.3743 178.576 134.547 185.755 135.3 185.057C136.391 184.075 129.67 101.91 123.014 91.2167C121.595 88.9253 110.214 85.7609 105.162 89.3181C88.9365 100.688 63.676 177.604 64.2216 178.368Z" fill="#0AA110"/>
<path d="M163.998 129.157C163.638 129.659 155.269 145.262 154.919 147.03C154.57 148.798 142.917 191.67 143.582 192.946C144.248 194.223 162.536 201.435 163.343 201.435C164.151 201.435 200.443 193.35 202.396 191.986C204.349 190.622 205.058 157.189 204.327 153.795C203.596 150.402 201.403 144.182 201.403 144.182L202.756 142.305C202.756 142.305 199.024 126.549 198.315 127.094C197.606 127.64 164.783 128.055 163.998 129.157Z" fill="#0AA110"/>
<path opacity="0.1" d="M163.332 201.446C162.535 201.446 144.269 194.223 143.582 192.946C142.894 191.67 154.624 148.809 154.919 147.041C155.214 145.273 163.648 129.669 163.998 129.157C165.558 132.43 166.835 146.834 167.031 148.699C167.227 150.565 163.692 197.595 163.332 201.446Z" fill="black"/>
<path opacity="0.1" d="M201.402 144.149C198.631 144.586 195.838 144.848 193.044 145.12C190.251 145.393 187.446 145.622 184.653 145.808C181.86 145.993 179.055 146.168 176.251 146.31C173.447 146.452 170.642 146.528 167.838 146.626C167.692 146.599 167.554 146.537 167.437 146.446C167.319 146.355 167.225 146.237 167.162 146.102C167.049 145.903 166.961 145.69 166.9 145.469C166.766 145.056 166.664 144.633 166.594 144.204C166.44 143.364 166.345 142.514 166.311 141.661C166.474 142.502 166.649 143.331 166.878 144.138C166.983 144.544 167.118 144.942 167.282 145.328C167.424 145.677 167.718 146.091 167.849 146.081C170.642 145.84 173.436 145.546 176.229 145.339C179.023 145.131 181.827 144.935 184.631 144.782C187.436 144.629 190.229 144.477 193.033 144.389C195.837 144.302 198.598 144.215 201.402 144.149Z" fill="black"/>
<path d="M192.401 150.456L187.196 150.511L183.824 140.21L189.029 140.166L192.401 150.456Z" fill="white"/>
<g opacity="0.1">
<path opacity="0.1" d="M163.487 132.801C162.843 137.515 162.09 142.207 161.304 146.888C160.519 151.569 159.678 156.25 158.86 160.931C158.042 165.612 157.114 170.261 156.176 174.92L154.757 181.904C154.234 184.228 153.764 186.552 153.219 188.865C153.524 186.508 153.906 184.162 154.244 181.816L155.336 174.778C156.11 170.086 156.972 165.416 157.78 160.735C158.587 156.054 159.526 151.405 160.464 146.746C161.402 142.087 162.417 137.428 163.487 132.801Z" fill="black"/>
<path opacity="0.1" d="M145.11 192.226C147.686 190.807 150.348 189.564 153.032 188.396L153.36 188.254L153.611 188.538C155.073 190.196 156.513 191.877 157.91 193.612C159.306 195.347 160.638 197.114 161.892 198.948C160.256 197.431 158.706 195.838 157.211 194.212C155.716 192.586 154.265 190.938 152.847 189.193L153.425 189.334C150.697 190.415 147.936 191.408 145.11 192.226Z" fill="black"/>
</g>
<path d="M98.4958 97.7202C91.9488 115.386 79.6732 159.567 88.6753 165.209C103.559 174.473 133.85 177.288 143.005 177.212C146.955 177.212 151.614 146.855 147.533 145.753C142.634 144.433 111.186 143.462 110.564 140.952C110.215 139.523 111.262 125.13 109.473 109.243C107.422 90.7912 100.733 91.6751 98.4958 97.7202Z" fill="#943E21"/>
<path d="M134.089 148.012C134.089 148.012 144.095 141.356 150.849 137.308C154.614 135.049 161.412 131.754 164.936 131.361C170.206 130.783 192.63 131.688 192.521 137.133C192.434 142.054 173.262 138.824 173.262 138.824C173.262 138.824 192.903 140.374 191.692 146.288C190.48 152.202 169.312 145.666 169.312 145.666C169.312 145.666 189.444 147.706 187.24 153.61C185.57 158.062 166.071 153.239 166.071 153.239C166.071 153.239 183.355 155.116 181.838 159.786C180.169 164.936 161.881 161.608 161.881 161.608C156.032 172.792 148.94 176.393 143.189 177.201C141.825 177.364 134.089 148.012 134.089 148.012Z" fill="#943E21"/>
<path d="M166.508 137.853C168.821 137.951 171.167 138.039 173.458 138.344C175.75 138.65 178.041 139.032 180.3 139.545C183.263 140.157 186.145 141.113 188.888 142.392C183.846 140.483 175.652 139.272 173.36 138.966C171.069 138.661 168.788 138.246 166.497 137.941C166.442 137.941 166.453 137.853 166.508 137.853Z" fill="#5A3022"/>
<path d="M165.264 146.124C168.21 146.375 171.146 146.517 174.081 146.91C177.016 147.303 179.744 147.903 182.636 148.492C182.854 148.492 182.756 148.634 182.537 148.601C179.624 148.132 176.896 147.925 173.983 147.51C171.069 147.095 168.167 146.528 165.253 146.201C165.21 146.19 165.221 146.124 165.264 146.124Z" fill="#5A3022"/>
<path d="M162.918 153.064C167.444 153.326 171.931 154.057 176.306 155.246C176.525 155.301 176.394 155.421 176.165 155.377C171.723 154.548 168.254 153.872 162.918 153.195C162.809 153.173 162.809 153.064 162.918 153.064Z" fill="#5A3022"/>
<path d="M160.102 132.561C155.738 133.565 140.669 143.014 139.01 144.488C137.81 144.357 132.638 144.051 132.059 144.138C132.038 144.146 132.019 144.159 132.005 144.178C131.992 144.197 131.984 144.219 131.984 144.242C131.984 144.265 131.992 144.287 132.005 144.306C132.019 144.325 132.038 144.339 132.059 144.346C132.605 144.553 137.744 145.295 138.956 145.437C139.163 145.437 156.6 134.525 160.375 132.725C160.506 132.627 160.255 132.528 160.102 132.561Z" fill="#5A3022"/>
<path d="M112.473 127.629L85.9355 133.925C85.9355 133.925 93.3446 104.856 97.9384 96.9235C103.111 87.9978 106.548 92.5589 109.156 102.041C111.763 111.523 112.473 127.629 112.473 127.629Z" fill="#0AA110"/>
<path opacity="0.1" d="M112.473 127.629L85.9355 133.925C85.9355 133.925 93.3446 104.856 97.9384 96.9235C103.111 87.9978 106.548 92.5589 109.156 102.041C111.763 111.523 112.473 127.629 112.473 127.629Z" fill="black"/>
<path d="M93.5195 108.141C93.5195 108.021 93.3668 107.988 93.334 108.141C92.4284 110.52 91.5773 112.931 90.7698 115.353C90.8913 114.022 91.1323 112.703 91.49 111.414C91.49 111.414 91.4245 111.338 91.4027 111.414C90.9348 112.89 90.6561 114.419 90.5734 115.965C90.0169 117.645 89.4822 119.347 88.9585 121.038C87.6272 125.403 86.2414 129.68 85.1612 134.078C85.1499 134.131 85.1525 134.186 85.1687 134.238C85.1848 134.29 85.214 134.336 85.2535 134.374C85.2929 134.411 85.3413 134.437 85.3939 134.451C85.4465 134.464 85.5017 134.463 85.554 134.449C86.4706 134.198 87.3654 133.925 88.271 133.609C88.3583 133.609 88.3474 133.423 88.271 133.434C87.4854 133.521 86.7216 133.641 85.9468 133.772C87.3435 129.637 88.522 125.425 89.7987 121.246C91.0753 117.067 92.3738 112.516 93.5195 108.141Z" fill="#046A08"/>
<path d="M111.981 115.964C111.981 114.524 112.036 113.084 111.981 111.6C111.981 111.6 111.981 111.6 111.927 111.6C111.876 112.655 111.832 113.713 111.796 114.775C111.523 112.68 111.218 110.585 110.814 108.523C110.814 108.523 110.748 108.523 110.814 108.523C110.956 111.72 111.283 114.906 111.512 118.092C111.741 121.278 112.003 124.345 112.287 127.476C111.698 127.716 111.119 127.935 110.519 128.153C110.496 128.16 110.477 128.176 110.466 128.198C110.454 128.219 110.452 128.244 110.459 128.267C110.466 128.291 110.483 128.31 110.504 128.321C110.526 128.332 110.551 128.335 110.574 128.327C111.25 128.207 111.927 128.076 112.614 127.978C112.693 127.973 112.766 127.939 112.82 127.882C112.875 127.826 112.906 127.751 112.909 127.673C112.745 123.777 112.451 119.838 111.981 115.964Z" fill="#046A08"/>
<path d="M117.688 100.688C115.2 100.819 108.435 95.6142 106.187 90.4966C106.034 90.1366 108.599 76.8571 108.828 74.1291C108.828 73.5836 125.304 79.6941 125.304 79.6941C124.055 82.9654 123.208 86.3768 122.784 89.8529C122.747 90.2156 122.747 90.5812 122.784 90.944C122.789 91.0057 122.789 91.0678 122.784 91.1295C122.969 93.2682 121.344 100.459 117.688 100.688Z" fill="#943E21"/>
<path d="M109.909 74.3037C110.182 78.4283 111.786 90.0602 121.072 91.0858C121.648 91.1516 122.228 91.1699 122.807 91.1404C122.813 91.0787 122.813 91.0166 122.807 90.9549C122.78 90.5917 122.78 90.227 122.807 89.8637C123.232 86.3843 124.078 82.9694 125.327 79.6941C125.327 79.6941 113.575 75.3185 109.909 74.3037Z" fill="#5A3022"/>
<path d="M110.618 51.4438C107.552 56.8996 106.963 74.5001 110.313 79.1812C115.158 85.9574 124.923 88.6307 131.154 82.3892C137.188 76.3333 137.548 53.3969 133.642 48.9559C127.891 42.4198 115.136 43.3691 110.618 51.4438Z" fill="#943E21"/>
<path d="M108.458 67.4839C111.732 67.0802 114.874 56.9432 114.874 56.9432C114.874 56.9432 114.165 61.3079 115.005 61.3079C115.846 61.3079 120.156 55.8521 121.214 51.6402C123.399 53.6298 125.835 55.3246 128.459 56.6814C132.202 58.4709 136.163 58.7655 136.098 58.089C136.098 56.0048 135.727 50.8218 134.406 49.2396C132.616 47.2339 130.319 45.7471 127.755 44.9349C125.192 44.1228 122.458 44.0154 119.839 44.624C113.052 46.0861 110.739 49.9379 109.288 52.9823C107.836 56.0267 107.269 67.6258 108.458 67.4839Z" fill="black"/>
<path d="M136.195 53.517C134.602 52.8732 125.349 51.7711 120.919 52.9386C116.489 54.1062 108.272 58.9619 107.825 59.2128C107.378 59.4638 107.825 44.002 120.504 43.0636C134.439 42.0488 136.195 53.517 136.195 53.517Z" fill="#0AA110"/>
<path d="M108.676 58.7C108.676 58.7 118.42 49.1741 123.308 47.3955C128.197 45.6169 138.585 45.7369 144.39 49.436C148.962 52.3166 136.097 56.8232 136.097 56.8232C136.06 56.2917 135.901 55.7759 135.632 55.316C135.364 54.8561 134.992 54.4644 134.547 54.1716C131.667 52.5131 125.742 52.5785 122.272 53.2005C117.907 53.9752 108.676 58.7 108.676 58.7Z" fill="#0AA110"/>
<path opacity="0.2" d="M108.676 58.7C108.676 58.7 118.42 49.1741 123.308 47.3955C128.197 45.6169 138.585 45.7369 144.39 49.436C148.962 52.3166 136.097 56.8232 136.097 56.8232C136.06 56.2917 135.901 55.7759 135.632 55.316C135.364 54.8561 134.992 54.4644 134.547 54.1716C131.667 52.5131 125.742 52.5785 122.272 53.2005C117.907 53.9752 108.676 58.7 108.676 58.7Z" fill="black"/>
<path d="M111.229 66.0217C111.229 66.0217 108.468 59.7693 105.708 60.6532C102.947 61.537 104.267 70.059 106.984 71.7285C107.318 71.9652 107.695 72.1322 108.095 72.2193C108.494 72.3064 108.907 72.3119 109.308 72.2355C109.71 72.159 110.092 72.0022 110.431 71.7745C110.771 71.5467 111.061 71.2527 111.284 70.9101L111.229 66.0217Z" fill="#943E21"/>
<path d="M106.155 63.0864V63.1628C108.043 64.3958 108.741 66.5127 109.112 68.6186C109.032 68.3911 108.904 68.1835 108.736 68.0101C108.568 67.8366 108.365 67.7012 108.141 67.6132C107.916 67.5252 107.675 67.4866 107.434 67.5001C107.193 67.5135 106.958 67.5787 106.744 67.6911C106.679 67.6911 106.744 67.8112 106.744 67.8112C107.134 67.7705 107.526 67.8541 107.866 68.0501C108.205 68.2461 108.473 68.5445 108.632 68.9023C108.911 69.4813 109.127 70.0885 109.276 70.7137C109.341 70.921 109.691 70.8883 109.658 70.7137C110.225 67.953 108.905 63.9048 106.155 63.0864Z" fill="#5A3022"/>
<path d="M340.56 242.911H327.215L318.071 229.489H333.708L340.56 242.911Z" fill="#0AA110"/>
<path d="M318.071 229.489L323.429 237.346L327.215 242.911H340.56L336.948 235.84L333.697 229.489H318.071Z" fill="#0AA110"/>
<path opacity="0.1" d="M318.071 229.489L323.429 237.346L336.948 235.84L333.697 229.489H318.071Z" fill="black"/>
<path d="M293.356 235.687C293.16 236.134 266.808 240.99 266.808 240.99C266.808 240.99 262.443 238.044 265.139 234.312L291.567 228.605C292.585 229.438 293.308 230.576 293.631 231.851C293.953 233.126 293.857 234.471 293.356 235.687Z" fill="#263238"/>
<path d="M348.667 201.621V232.883C348.667 232.883 331.786 231.41 327.291 231.257C322.795 231.104 302.816 233.69 302.816 233.69L301.267 226.685C301.267 226.685 316.663 221.306 323.21 217.105C329.757 212.904 337.297 204.873 341.345 203.094C343.64 202.045 346.145 201.541 348.667 201.621Z" fill="#0AA110"/>
<path d="M302.882 225.801C303.886 226.833 304.643 228.079 305.096 229.445C305.55 230.812 305.688 232.263 305.501 233.69C305.501 233.69 292.92 235.993 292.767 235.993C292.867 234.506 292.5 233.026 291.718 231.758C290.935 230.49 289.776 229.499 288.402 228.922L302.882 225.801Z" fill="#DBDBDB"/>
<path d="M348.832 232.883C353.4 232.883 357.103 225.887 357.103 217.257C357.103 208.628 353.4 201.632 348.832 201.632C344.264 201.632 340.561 208.628 340.561 217.257C340.561 225.887 344.264 232.883 348.832 232.883Z" fill="#DBDBDB"/>
<path d="M342.262 217.257C342.262 224.895 345.437 231.191 349.343 231.191C353.25 231.191 356.425 224.95 356.425 217.257C356.425 209.565 353.25 203.312 349.343 203.312C345.437 203.312 342.262 209.554 342.262 217.257Z" fill="white"/>
<path d="M129.659 272.11H238.765V204.283H129.659V272.11Z" fill="#37474F"/>
<path d="M129.659 272.11H208.485V204.283H129.659V272.11Z" fill="#263238"/>
<path d="M265.367 152.278H231.388L204.785 204.283H238.764L265.367 152.278Z" fill="#37474F"/>
<path d="M235.065 152.278H231.388L204.785 204.283H208.462L235.065 152.278Z" fill="#263238"/>
<path d="M145.198 204.273H138.443V272.132H145.198V204.273Z" fill="#0AA110"/>
<path d="M194.834 204.273H188.08V272.132H194.834V204.273Z" fill="#0AA110"/>
<path d="M351.494 242.911C354.243 246.937 365.253 301.692 367.414 304.442C369.574 307.191 373.71 307.388 373.71 307.388L381.042 325.468C381.042 325.468 362.962 331.175 352.923 339.424C339.895 350.096 327.903 385.482 327.903 385.482C325.939 386.857 301.562 396.885 294.873 397.278C294.873 397.278 325.96 363.146 328.492 315.91C329.474 297.6 318.224 271.837 317.482 259.071C316.696 245.409 320.821 242.954 328.099 242.954L351.494 242.911Z" fill="#0AA110"/>
<path d="M293.377 401.206L288.511 396.601C315.79 367.729 325.85 322.238 325.054 309.821C324.639 303.449 322.599 296.334 320.427 288.805C318.114 280.763 315.495 271.652 314.382 261.755C313.291 252.567 314.382 246.631 317.514 243.085C320.646 239.539 324.945 239.55 327.804 239.55H353.762V246.26H327.793C325.294 246.26 323.592 246.348 322.511 247.559C321.431 248.77 320.024 251.924 321.049 261.013C322.14 270.343 324.53 278.788 326.876 286.95C329.146 294.839 331.295 302.303 331.743 309.384C332.594 322.609 322.119 370.872 293.377 401.206Z" fill="#DBDBDB"/>
<path opacity="0.1" d="M348.242 318.507C347.03 312.854 345.721 307.213 344.586 301.539C343.451 295.865 342.404 290.18 341.52 284.473C340.658 279.159 339.73 273.791 339.392 268.411C339.054 262.792 339.392 257.118 342.12 252.044C342.126 252.034 342.13 252.023 342.131 252.011C342.132 252 342.132 251.988 342.129 251.977C342.126 251.966 342.12 251.955 342.113 251.946C342.106 251.937 342.097 251.929 342.087 251.924C342.077 251.918 342.066 251.914 342.055 251.913C342.043 251.911 342.032 251.912 342.021 251.915C342.009 251.918 341.999 251.923 341.99 251.93C341.981 251.938 341.973 251.946 341.967 251.956C339.163 256.048 338.247 260.958 338.094 265.836C338.108 271.217 338.582 276.587 339.512 281.887C341.104 293.517 343.289 305.059 346.059 316.466C347.641 322.915 349.682 329.255 351.864 335.518C351.871 335.538 351.886 335.555 351.906 335.564C351.925 335.573 351.948 335.574 351.968 335.567C351.988 335.56 352.005 335.545 352.014 335.525C352.023 335.506 352.024 335.484 352.017 335.463C350.715 329.833 349.456 324.181 348.242 318.507Z" fill="black"/>
</g>
<rect x="0.5" y="0.5" width="401" height="265" rx="16.5" stroke="#F1F1F1"/>
<defs>
<clipPath id="clip0_440_9992">
<rect x="1" y="1" width="400" height="264" rx="16" fill="white"/>
</clipPath>
</defs>
</svg>
