<svg width="402" height="266" viewBox="0 0 402 266" fill="none" xmlns="http://www.w3.org/2000/svg">
<g clip-path="url(#clip0_440_9909)">
<rect x="1" y="1" width="400" height="264" rx="16" fill="white"/>
<g clip-path="url(#clip1_440_9909)">
<path d="M140.621 238.723H61.3655L48.2983 188.11H114.427L124.897 235.421L140.621 235.798V238.723Z" fill="#2C2C2C"/>
<path d="M87.9057 213.391C87.9077 214.28 87.6459 215.149 87.1536 215.89C86.6614 216.63 85.9606 217.206 85.1401 217.548C84.3197 217.889 83.4162 217.98 82.5445 217.808C81.6726 217.635 80.8714 217.208 80.2424 216.58C79.6133 215.952 79.1845 215.153 79.0104 214.281C78.8363 213.41 78.9245 212.507 79.2643 211.685C79.6039 210.864 80.1796 210.162 80.9183 209.667C81.6571 209.174 82.5259 208.91 83.4146 208.91C84.6039 208.91 85.7448 209.383 86.5868 210.223C87.4288 211.063 87.9031 212.202 87.9057 213.391Z" fill="#F5F5F5"/>
<path d="M277.299 237.07H139.531V241.175H277.299V237.07Z" fill="#263238"/>
<path d="M380.291 238.551H11V246.775H380.291V238.551Z" fill="#704C45"/>
<path opacity="0.3" d="M380.291 238.551H343.906V246.775H380.291V238.551Z" fill="#263238"/>
<path d="M376.766 246.79H14.5244V536.633H376.766V246.79Z" fill="#C78976"/>
<path opacity="0.8" d="M376.766 246.79H347.767V536.633H376.766V246.79Z" fill="#704C45"/>
<g opacity="0.3">
<path opacity="0.3" d="M95.5181 536.617H96.7894V246.775H95.5181V536.617Z" fill="#704C45"/>
<path opacity="0.3" d="M96.7896 536.617H98.0608V246.775H96.7896V536.617Z" fill="white"/>
</g>
<path opacity="0.3" d="M376.766 246.79H14.5244V250.686L376.766 254.595V246.79Z" fill="#704C45"/>
<path d="M35.2186 137.41C35.9029 137.41 36.4578 136.855 36.4578 136.171C36.4578 135.487 35.9029 134.932 35.2186 134.932C34.5344 134.932 33.9795 135.487 33.9795 136.171C33.9795 136.855 34.5344 137.41 35.2186 137.41Z" fill="white"/>
<path d="M119.801 231.97H31.1639C29.421 231.97 27.7494 232.661 26.5155 233.893C25.2816 235.122 24.5863 236.793 24.582 238.535H126.367C126.363 236.795 125.67 235.128 124.439 233.898C123.209 232.667 121.541 231.974 119.801 231.97Z" fill="#704C45"/>
<path opacity="0.5" d="M119.801 231.97H31.1639C29.421 231.97 27.7494 232.661 26.5155 233.893C25.2816 235.122 24.5863 236.793 24.582 238.535H126.367C126.363 236.795 125.67 235.128 124.439 233.898C123.209 232.667 121.541 231.974 119.801 231.97Z" fill="white"/>
<path opacity="0.5" d="M90.2072 231.97H31.1639C29.421 231.97 27.7494 232.661 26.5155 233.893C25.2816 235.122 24.5863 236.793 24.582 238.535H96.773C96.7687 236.795 96.0755 235.128 94.8451 233.898C93.6148 232.667 91.9472 231.974 90.2072 231.97Z" fill="white"/>
<path d="M348.203 217.616C348.413 216.15 346.031 215.122 344.421 215.201C343.134 215.284 341.844 215.086 340.64 214.621C341.973 215.524 343.455 216.183 345.018 216.569C346.118 216.789 347.187 217.14 348.203 217.616Z" fill="#263238"/>
<path d="M348.203 217.616C349.025 216.375 347.302 214.396 345.823 213.818C344.599 213.353 343.498 212.616 342.604 211.661C343.415 213.057 344.473 214.294 345.725 215.314C346.643 215.976 347.475 216.75 348.203 217.616Z" fill="#263238"/>
<path d="M348.363 217.614C348.026 216.167 350.328 214.944 351.922 214.911C353.216 214.885 354.49 214.579 355.655 214.01C354.405 215.026 352.981 215.805 351.454 216.313C350.376 216.621 349.338 217.058 348.363 217.614Z" fill="#263238"/>
<path d="M348.365 217.616C347.738 216.279 349.717 214.59 351.277 214.22C352.529 213.942 353.705 213.393 354.721 212.61C353.715 213.89 352.489 214.979 351.1 215.829C350.12 216.311 349.2 216.911 348.365 217.616Z" fill="#263238"/>
<path d="M362.027 224.132C361.85 214.027 352.887 215.057 348.107 217.197C343.585 214.59 332.418 215.925 332.964 225.661C333.319 231.985 336.858 237.216 342.732 238.535C343.988 238.824 346.755 237.796 348.107 237.796C349.459 237.796 351.181 238.632 352.212 238.503C358.488 237.667 362.157 230.731 362.027 224.132Z" fill="#E13500"/>
<path d="M284.29 192.394V192.477C284.29 192.477 284.29 192.512 284.29 192.536C284.29 192.56 284.29 192.63 284.26 192.695V192.802C284.242 192.877 284.227 192.955 284.219 193.032C284.219 193.084 284.219 193.138 284.19 193.197C284.16 193.256 284.147 193.446 284.118 193.586C284.088 193.729 284.029 194.066 283.983 194.349L283.717 195.791C283.688 195.944 283.658 196.111 283.629 196.282C283.599 196.452 283.545 196.742 283.497 196.984C283.451 197.228 283.403 197.529 283.35 197.818C283.315 198.018 283.274 198.225 283.237 198.439C283.126 199.07 283.008 199.744 282.872 200.464C282.87 200.483 282.87 200.5 282.872 200.518C282.729 201.321 282.576 202.183 282.41 203.088C282.369 203.325 282.321 203.561 282.275 203.797C282.227 204.034 282.181 204.294 282.138 204.541C282.138 204.695 282.085 204.855 282.05 205.014C281.826 206.272 281.583 207.603 281.324 209.008C281.236 209.481 281.152 209.961 281.064 210.445C280.892 211.39 280.715 212.359 280.532 213.358C280.484 213.587 280.443 213.818 280.408 214.054C280.141 215.5 279.865 217.005 279.587 218.569C279.552 218.728 279.528 218.888 279.498 219.047C279.361 219.78 279.227 220.519 279.096 221.276C279.079 221.333 279.066 221.392 279.06 221.453L278.865 222.528C278.606 223.97 278.338 225.445 278.062 226.954C277.991 227.325 277.919 227.703 277.855 228.087C277.72 228.85 277.578 229.618 277.436 230.392C277.258 231.356 277.081 232.325 276.904 233.311C276.727 234.297 276.549 235.285 276.366 236.265C276.272 236.768 276.184 237.27 276.088 237.772C275.982 238.363 275.87 238.954 275.763 239.585H224.695C230.994 213.417 236.306 192.316 236.306 192.316L284.29 192.394Z" fill="#37474F"/>
<path d="M276.574 198.302C274.016 212.09 271.433 225.875 268.82 239.663H268.1C270.813 225.842 273.606 212.045 276.372 198.243C276.426 198.114 276.59 198.166 276.574 198.302Z" fill="black"/>
<path d="M284.284 192.394C284.284 192.394 284.284 192.423 284.284 192.477C284.284 192.53 284.284 192.512 284.284 192.536C284.284 192.56 284.284 192.63 284.255 192.695V192.802C284.236 192.877 284.221 192.955 284.212 193.032C284.212 193.084 284.212 193.138 284.183 193.197C284.153 193.256 284.136 193.446 284.112 193.586C284.088 193.729 284.024 194.066 283.976 194.349C283.894 194.768 283.811 195.248 283.71 195.791C283.68 195.944 283.651 196.11 283.621 196.282C283.592 196.452 283.54 196.742 283.492 196.984C283.444 197.228 283.398 197.529 283.344 197.818C283.309 198.018 283.267 198.225 283.232 198.439C283.113 199.07 282.995 199.744 282.866 200.464C282.862 200.483 282.862 200.499 282.866 200.518C282.718 201.321 282.565 202.172 282.399 203.077C282.351 203.314 282.31 203.555 282.27 203.797C282.227 204.039 282.174 204.294 282.133 204.541C282.098 204.695 282.074 204.855 282.044 205.014C281.814 206.268 281.572 207.603 281.317 209.008C281.228 209.481 281.147 209.961 281.058 210.445C280.881 211.39 280.704 212.359 280.527 213.358C280.479 213.587 280.438 213.818 280.401 214.054C280.13 215.507 279.856 217.012 279.581 218.569C279.544 218.728 279.522 218.888 279.493 219.047C279.356 219.78 279.219 220.519 279.09 221.276C279.073 221.333 279.06 221.392 279.055 221.453L278.859 222.528C278.595 223.97 278.327 225.445 278.056 226.954C277.986 227.325 277.914 227.703 277.849 228.087C277.707 228.85 277.572 229.618 277.43 230.392C277.253 231.356 277.076 232.325 276.898 233.311C276.721 234.297 276.538 235.285 276.361 236.265C276.265 236.768 276.176 237.27 276.082 237.772C275.977 238.363 275.864 238.954 275.752 239.585H250.127L248.075 218.598L248.005 217.854L247.922 217.051L247.519 212.945L247.172 209.399L245.505 192.394H284.284Z" fill="black"/>
<path d="M313.302 239.663H258.227C258.133 234.592 258.032 229.688 257.908 225.063C257.908 224.95 257.908 224.838 257.908 224.725C257.908 224.725 251.479 220.921 248.016 217.937C247.427 217.452 246.886 216.914 246.397 216.329C244.181 213.506 241.96 202.645 237.364 192.429H304.723C315.665 213.665 314.897 230.73 313.302 239.663Z" fill="#37474F"/>
<path d="M244.791 215.58C248.07 216.92 251.019 218.983 253.925 220.973C256.944 223.035 259.715 225.423 262.624 227.639C262.734 227.727 262.624 227.91 262.505 227.827C259.444 225.872 256.235 224.153 253.205 222.138C250.173 220.124 247.202 218.279 244.643 215.816C244.543 215.722 244.654 215.52 244.791 215.58Z" fill="black"/>
<path d="M244.377 196.629C244.766 198.727 245.274 200.808 245.73 202.892C246.155 204.85 246.469 206.84 246.982 208.801C247.405 210.673 248.356 212.385 249.724 213.729C250.492 214.444 251.338 215.077 252.158 215.727C252.595 216.082 253.074 216.418 253.535 216.778C253.471 216.501 253.423 216.187 253.376 215.934C253.234 215.136 253.098 214.344 252.968 213.57C252.673 211.798 252.377 210.025 252.117 208.253C251.585 204.772 251.094 201.257 250.345 197.811C250.337 197.783 250.341 197.752 250.356 197.726C250.37 197.7 250.396 197.68 250.424 197.673C250.453 197.665 250.485 197.669 250.511 197.684C250.537 197.698 250.555 197.724 250.562 197.752C251.432 201.168 252.389 204.547 253.14 207.992C253.511 209.676 254.835 218.037 254.913 218.628C254.988 219.219 255.018 219.85 255.042 220.46C255.125 221.082 255.125 221.711 255.042 222.332C255.031 222.361 255.011 222.385 254.985 222.402C254.961 222.419 254.931 222.428 254.9 222.428C254.87 222.428 254.841 222.419 254.815 222.402C254.789 222.385 254.77 222.361 254.758 222.332C254.506 221.754 254.327 221.146 254.226 220.524C254.073 219.933 253.943 219.342 253.831 218.717C253.796 218.504 253.766 218.279 253.736 218.056C252.915 217.553 252.147 216.874 251.373 216.342C250.599 215.81 249.706 215.16 248.921 214.497C247.473 213.275 246.43 211.645 245.924 209.818C245.42 207.854 245.093 205.849 244.944 203.827C244.678 201.463 244.489 199.1 244.159 196.736C244.14 196.53 244.353 196.489 244.377 196.629Z" fill="#23282C"/>
<path d="M300.421 211.237C299.546 210.781 296.137 211.591 289.938 210.533C288.725 210.378 287.573 209.911 286.594 209.174C284.975 207.856 283.753 205.736 282.778 203.921C281.607 201.881 280.71 199.696 280.106 197.421C280.076 197.279 279.877 197.351 279.899 197.481C280.13 198.764 280.261 200.045 280.597 201.316C280.933 202.507 281.362 203.672 281.879 204.796C282.818 206.899 283.912 209.156 285.797 210.581C287.776 212.069 290.524 212.354 292.935 212.518C294.324 212.612 299.765 212.465 300.491 211.691C300.519 211.658 300.541 211.619 300.552 211.576C300.563 211.534 300.565 211.491 300.559 211.447C300.552 211.405 300.537 211.364 300.513 211.327C300.489 211.29 300.458 211.261 300.421 211.237Z" fill="#23282C"/>
<path d="M250.852 119.67C246.042 128.58 204.483 194.379 198.685 194.166C181.627 193.575 165.597 189.168 169.845 176.174C174.744 161.078 220.004 124.338 242.298 109.253C258.268 98.4461 255.598 110.854 250.852 119.67Z" fill="#943E21"/>
<path d="M234.846 149.674L202.686 138.625C202.686 138.625 229.157 116.001 241.872 108.65C255.131 100.969 261.11 104.089 250.882 121.596C240.808 138.849 234.846 149.674 234.846 149.674Z" fill="#262D31"/>
<path d="M237.109 145.615C236.937 145.916 236.779 146.206 236.631 146.477C236.572 146.388 236.54 146.283 236.542 146.176C236.54 146.103 236.555 146.03 236.583 145.962C236.61 145.894 236.651 145.832 236.703 145.78C236.755 145.727 236.815 145.686 236.884 145.658C236.95 145.629 237.024 145.615 237.098 145.615H237.109Z" fill="white"/>
<path d="M234.58 143.393C233.848 143.044 233.056 142.802 232.294 142.513L229.93 141.638C228.34 141.047 226.745 140.457 225.144 139.931C221.948 138.82 218.757 137.703 215.543 136.645C214.656 136.356 213.77 136.055 212.878 135.801C211.986 135.546 210.987 135.304 210.048 135.026C209.994 135.026 209.97 135.091 210.048 135.115C210.834 135.411 211.595 135.777 212.376 136.078C213.155 136.38 213.982 136.669 214.793 136.976C216.368 137.551 217.967 138.109 219.59 138.648C222.746 139.718 225.901 140.799 229.079 141.804L231.738 142.631C232.667 142.926 233.599 143.275 234.55 143.482C234.593 143.488 234.628 143.417 234.58 143.393Z" fill="#23282C"/>
<path d="M250.882 121.602C240.808 138.849 234.846 149.674 234.846 149.674L224.564 146.129L254.51 105.164C257.234 106.653 256.53 111.93 250.882 121.602Z" fill="#23282C"/>
<path d="M231.236 203.714H310.944C310.944 203.714 298.766 127.658 269.389 101.649C265.761 98.4343 257.572 99.1669 252.224 101.82C250.315 102.771 243.467 112.349 241.511 121.413C239.556 130.477 231.023 203.443 231.236 203.714Z" fill="#262D31"/>
<path d="M303.705 171.241L268.336 100.928C268.713 101.14 269.066 101.392 269.389 101.678C286.062 116.408 297.195 147.287 303.705 171.241Z" fill="#23282C"/>
<path d="M240.843 125.159C240.252 127.18 239.744 129.295 239.344 131.393C239.344 131.31 239.344 131.227 239.344 131.145C239.307 129.963 239.301 128.752 239.177 127.599C239.177 127.54 239.07 127.523 239.059 127.599C238.908 128.793 238.875 129.998 238.96 131.198C238.995 131.789 239.03 132.326 239.078 132.894C238.912 133.839 238.769 134.784 238.651 135.724C238.428 137.496 237.824 144.167 237.778 145.491C237.778 145.774 238.084 145.816 238.162 145.526C238.522 144.191 239.478 137.325 239.779 135.558C240.359 132.132 240.754 128.676 240.961 125.206C240.985 125.088 240.867 125.088 240.843 125.159Z" fill="#23282C"/>
<path d="M276.372 102.482C296.894 108.656 347.719 125.98 350.934 137.343C353.298 145.686 315.286 148.959 314.129 147.653C313.218 146.619 276.969 125.147 263.733 111.238C252.235 99.161 269.819 100.508 276.372 102.482Z" fill="#943E21"/>
<path d="M293.655 136.261L318.944 116.332C318.944 116.332 286.487 103.722 272.053 100.969C257.01 98.1152 252.388 103.019 267.823 116.166C283.038 129.106 293.655 136.261 293.655 136.261Z" fill="#262D31"/>
<path d="M311.582 115.522C310.897 115.953 310.264 116.485 309.62 116.981L307.629 118.5C306.276 119.528 304.946 120.58 303.622 121.632C300.982 123.741 298.304 125.845 295.718 127.995C294.996 128.586 294.283 129.177 293.578 129.768C292.839 130.412 292.148 131.109 291.41 131.747C291.369 131.789 291.41 131.848 291.474 131.812C292.148 131.31 292.857 130.861 293.537 130.365C294.216 129.868 294.907 129.331 295.587 128.799C296.916 127.759 298.245 126.701 299.558 125.638C302.152 123.54 304.752 121.454 307.293 119.304L309.42 117.496C310.164 116.869 310.956 116.267 311.636 115.569C311.671 115.581 311.628 115.493 311.582 115.522Z" fill="#23282C"/>
<path d="M291.09 134.3C290.311 133.709 289.572 133.077 288.81 132.468C288.047 131.86 287.273 131.286 286.505 130.666C285.004 129.484 283.492 128.332 281.991 127.156C278.942 124.793 275.909 122.4 272.891 119.977C271.178 118.606 269.494 117.182 267.734 115.871C267.734 115.871 267.675 115.871 267.697 115.906C269.099 117.253 270.593 118.5 272.077 119.753C271.774 119.581 271.486 119.41 271.172 119.227C270.858 119.044 270.517 118.813 270.197 118.595C269.878 118.376 269.559 118.116 269.223 117.909C269.169 117.88 269.128 117.951 269.163 117.998C269.732 118.591 270.393 119.089 271.119 119.475C271.473 119.692 271.837 119.889 272.212 120.066L272.62 120.225C273.944 121.336 275.275 122.439 276.614 123.534C279.603 125.974 282.646 128.362 285.748 130.66C286.599 131.298 287.469 131.919 288.331 132.545C289.194 133.171 290.15 133.756 291.031 134.394C291.073 134.4 291.144 134.329 291.09 134.3Z" fill="#23282C"/>
<path d="M268.377 103.923C266.717 108.463 263.888 112.485 260.177 115.581C258.364 117.171 256.196 118.3 253.855 118.872C252.627 119.193 251.332 119.143 250.132 118.73C249.011 118.21 248.04 117.413 247.313 116.414C246.478 115.307 245.815 114.08 245.346 112.775C244.803 111.313 244.364 109.814 244.033 108.29C244.033 108.284 244.033 108.279 244.032 108.274C244.03 108.269 244.026 108.264 244.022 108.261C244.019 108.257 244.013 108.254 244.009 108.252C244.004 108.25 243.998 108.249 243.993 108.249C243.987 108.249 243.982 108.25 243.976 108.252C243.972 108.254 243.967 108.257 243.963 108.261C243.96 108.264 243.956 108.269 243.954 108.274C243.952 108.279 243.952 108.284 243.952 108.29C244.253 109.732 244.441 111.197 244.855 112.615C245.202 113.877 245.717 115.088 246.386 116.213C247.034 117.296 247.905 118.226 248.945 118.943C250.056 119.649 251.375 119.957 252.684 119.818C255.238 119.531 257.656 118.532 259.669 116.934C261.669 115.425 263.421 113.613 264.861 111.563C266.503 109.239 267.74 106.654 268.519 103.917C268.549 103.864 268.406 103.835 268.377 103.923Z" fill="#23282C"/>
<path d="M251.757 116.349C256.484 116.84 263.378 108.857 265.736 102.813C265.895 102.399 264.78 98.3929 263.644 93.4651C262.97 90.4694 262.285 87.1192 261.872 84.0112C261.796 83.379 243.036 91.2552 243.036 91.2552C243.036 91.2552 245.789 97.5066 246.456 102.919C246.504 103.349 246.515 103.782 246.485 104.213C246.485 104.272 246.485 104.343 246.485 104.426C246.415 106.901 247.213 115.877 251.757 116.349Z" fill="#943E21"/>
<path d="M248.507 104.278C247.843 104.387 247.171 104.438 246.498 104.432C246.498 104.343 246.498 104.278 246.498 104.213C246.526 103.783 246.515 103.352 246.463 102.925C245.795 97.5184 243.047 91.2612 243.047 91.2612C243.047 91.2612 258.273 84.868 261.364 84.0644C261.211 87.7219 259.946 102.541 248.507 104.278Z" fill="#5A3022"/>
<path d="M259.189 59.963C263.266 65.984 265.689 86.2684 262.269 92.0057C257.322 100.319 246.316 104.372 238.479 97.7607C230.905 91.3498 228.235 64.8613 232.318 59.3544C238.326 51.2182 253.17 51.0705 259.189 59.963Z" fill="#943E21"/>
<path d="M262.664 77.0863C257.582 78.0789 254.765 69.0564 254.765 69.0564C254.765 69.0564 245.754 69.3578 243.184 63.0473C243.184 63.0473 235.957 69.9723 229.003 68.9087C222.048 67.8452 221.913 60.2053 222.332 58.4918C222.751 56.7783 226.935 58.9763 226.935 58.9763C226.935 58.9763 226.514 54.728 227.526 54.0839C228.536 53.4399 230.261 55.7206 230.261 55.7206C230.261 55.7206 238.089 51.2419 245.741 49.9479C253.393 48.6539 258.681 55.5729 258.681 55.5729C258.681 55.5729 262.924 55.6261 264.809 58.2141C266.693 60.802 265.903 76.46 262.664 77.0863Z" fill="black"/>
<path d="M256.825 68.7137C250.261 70.9472 244.897 67.3547 242.645 61.0857C242.639 61.0711 242.628 61.0591 242.613 61.0522C242.599 61.0454 242.584 61.0441 242.567 61.0484C242.552 61.0528 242.539 61.0626 242.53 61.0759C242.523 61.0894 242.519 61.1054 242.521 61.1211C243.915 67.1007 250.871 72.6962 256.968 68.9973C257.099 68.9028 256.997 68.6546 256.825 68.7137Z" fill="black"/>
<path d="M258.474 55.4843C258.456 55.4843 258.438 55.4917 258.425 55.5052C258.412 55.5185 258.404 55.5364 258.404 55.5552C258.404 55.5741 258.412 55.5921 258.425 55.6054C258.438 55.6187 258.456 55.6261 258.474 55.6261C260.537 56.1284 262.83 56.3529 264.501 57.8123C266.516 59.5849 266.711 62.3679 266.588 64.8495C266.386 68.6901 265.447 73.8247 262.599 76.6254C262.433 76.7849 262.688 77.0213 262.852 76.8677C266.322 73.7775 267.38 67.1539 267.06 62.7342C266.693 57.7887 263.142 55.6379 258.474 55.4843Z" fill="black"/>
<path d="M236.193 66.3976C233.575 68.761 229.181 69.73 225.864 68.2706C221.824 66.498 221.765 62.2556 222.628 58.5449C222.668 58.3618 222.391 58.2318 222.308 58.415C220.801 61.8302 221.534 66.4212 224.949 68.4242C228.494 70.4923 233.671 69.3696 236.553 66.7462C236.784 66.5394 236.406 66.1789 236.193 66.3976Z" fill="black"/>
<path d="M258.356 77.5945C258.356 77.5945 260.932 70.0964 264.212 70.8409C267.491 71.5854 266.8 81.5828 263.827 83.7749C263.466 84.0783 263.045 84.306 262.592 84.4443C262.14 84.5828 261.663 84.6289 261.193 84.5805C260.722 84.5322 260.266 84.3898 259.85 84.1621C259.435 83.9345 259.071 83.6259 258.776 83.255L258.356 77.5945Z" fill="#943E21"/>
<path d="M263.964 73.7007C263.975 73.6979 263.986 73.6988 263.995 73.7033C264.005 73.7079 264.014 73.7156 264.018 73.7253C264.023 73.7349 264.025 73.7459 264.021 73.7566C264.019 73.7672 264.014 73.7766 264.005 73.7834C261.944 75.3965 261.335 77.9194 261.117 80.4011C261.565 79.3434 262.374 78.5989 263.763 79.0893C263.84 79.0893 263.805 79.2312 263.763 79.2371C263.314 79.2219 262.873 79.3471 262.5 79.5949C262.125 79.8427 261.839 80.2009 261.678 80.6197C261.403 81.3171 261.205 82.0422 261.087 82.7822C261.039 83.0245 260.631 83.0186 260.644 82.7822V82.7231C259.715 79.7393 260.838 74.9179 263.964 73.7007Z" fill="#5A3022"/>
<path d="M246.367 105.737C245.83 105.814 243.65 106.866 243.361 107.333C243.072 107.799 231.094 198.426 230.698 202.309C230.303 206.19 222.851 239.663 222.851 239.663H307.936C307.936 239.663 299.966 187.543 299.966 186.662C299.966 186.662 310.122 185.776 310.011 185.48C309.898 185.185 308.327 178.307 308.327 178.307L298.5 177.125C298.5 177.125 276.915 126.311 275.935 121.815C274.954 117.318 269.873 100.337 269.69 100.26C269.507 100.183 266.422 99.8582 266.422 99.8582C266.422 99.8582 266.558 119.357 266.422 119.357C266.287 119.357 246.646 122.205 246.646 122.205L246.367 105.737Z" fill="#5D96F2"/>
<path d="M237.558 193.793C229.358 197.257 230.604 205.766 233.145 210.603C235.686 215.443 243.42 219.579 248.199 217.559C252.979 215.537 254.368 207.56 252.667 202.361C250.965 197.161 245.741 190.337 237.558 193.793Z" fill="#A6A6A6"/>
<path d="M240.453 194.462L236.341 196.269L211.289 143.192L218.196 140.149L240.453 194.462Z" fill="#A6A6A6"/>
<path d="M337.929 187.035C330.372 205.983 312.769 220.199 309.283 221.937C306.329 223.432 304.774 224.177 304.774 224.177C299.505 226.965 296.196 225.729 296.196 225.729C296.196 225.729 291.055 230.746 287.505 228.141C283.516 225.235 291.517 218.757 293.738 212.501C298.831 198.179 302.064 176.387 303.114 172.109L337.929 187.035Z" fill="#943E21"/>
<path d="M309.627 201.257C308.042 205.441 306.6 209.593 304.457 213.546C302.093 217.884 299.139 221.66 296.184 225.576C296.162 225.6 296.151 225.631 296.153 225.663C296.155 225.694 296.17 225.724 296.192 225.744C296.216 225.766 296.247 225.777 296.279 225.775C296.31 225.774 296.34 225.759 296.362 225.737C302.819 219.485 308.002 210.125 309.998 201.38C310.051 201.162 309.708 201.039 309.627 201.257Z" fill="#5A3022"/>
<path d="M318.719 203.064C316.946 207.053 313.809 214.043 304.669 224.088C304.639 224.123 304.669 224.182 304.722 224.153C311.364 218.657 316.348 211.423 319.116 203.26C319.204 203.029 318.837 202.798 318.719 203.064Z" fill="#5A3022"/>
<path d="M298.785 194.864C298.707 192.737 297.603 192.759 295.358 195.821C293.112 198.882 286.884 212.873 282.187 210.286C277.49 207.697 286.576 188.075 290.682 183.265C294.789 178.455 303.091 172.121 303.091 172.121C302.116 176.293 300.646 186.651 298.785 194.864Z" fill="#943E21"/>
<path d="M350.934 137.343C356.416 155.116 341.716 178.189 337.935 187.035C336.286 190.887 301.022 176.577 302.814 172.47C306.477 164.056 315.292 148.959 314.134 147.653C313.218 146.619 347.453 126.057 350.934 137.343Z" fill="#943E21"/>
<path d="M195.294 158.366C188.629 161.143 167.659 173.137 169.355 182.491C171.051 191.843 184.623 194.569 204.287 195.23L195.294 158.366Z" fill="#943E21"/>
<path d="M241.559 151.659C243.609 154.992 240.969 158.053 240.969 158.053C242.712 158.922 244.096 160.375 244.879 162.159C246.115 165.367 241.624 168.712 241.624 168.712C243.245 169.991 244.444 171.728 245.062 173.698C245.937 176.889 241.884 180.907 241.884 180.907C242.725 182.905 242.817 185.139 242.143 187.2C240.128 192.636 231.461 194.421 225.961 195.614C220.458 196.807 203.75 195.023 200.553 195.023L192.6 159.796C192.6 159.796 215.739 147.441 222.402 146.956C227.986 146.542 239.255 147.919 241.559 151.659Z" fill="#943E21"/>
<path d="M240.584 157.533C234.509 156.534 228.477 157.385 222.402 157.887C222.374 157.887 222.347 157.898 222.328 157.918C222.308 157.938 222.297 157.965 222.297 157.993C222.297 158.022 222.308 158.049 222.328 158.069C222.347 158.089 222.374 158.1 222.402 158.1C228.435 157.509 234.509 158.159 240.555 157.828C240.593 157.832 240.632 157.82 240.664 157.795C240.693 157.77 240.714 157.734 240.717 157.695C240.721 157.656 240.708 157.617 240.684 157.586C240.658 157.556 240.623 157.536 240.584 157.533Z" fill="#5A3022"/>
<path d="M241.399 168.274C239.997 168.18 238.588 168.269 237.209 168.54C235.737 168.741 234.268 168.964 232.802 169.208C229.868 169.701 226.945 170.266 224.033 170.905C223.904 170.934 223.915 171.133 224.033 171.117C226.987 170.631 229.895 170.188 232.844 169.828C234.314 169.645 235.798 169.48 237.268 169.32C238.668 169.259 240.054 169.043 241.404 168.676C241.447 168.661 241.482 168.633 241.508 168.597C241.532 168.561 241.546 168.517 241.544 168.473C241.544 168.429 241.53 168.386 241.504 168.35C241.478 168.315 241.441 168.288 241.399 168.274Z" fill="#5A3022"/>
<path d="M241.747 180.925C240.566 180.718 239.172 181.149 237.995 181.368C236.66 181.623 235.326 181.869 233.989 182.101C231.319 182.58 228.671 183.052 225.966 183.431C225.829 183.431 225.848 183.66 225.966 183.638C228.695 183.265 231.431 182.934 234.16 182.532C235.495 182.338 236.838 182.137 238.173 181.941C239.314 181.758 240.754 181.669 241.759 181.073C241.775 181.067 241.788 181.056 241.797 181.042C241.807 181.029 241.81 181.01 241.81 180.994C241.808 180.977 241.801 180.962 241.79 180.949C241.779 180.936 241.764 180.927 241.747 180.925Z" fill="#5A3022"/>
<path d="M173.243 173.338C174.944 171.344 176.845 169.528 178.915 167.92C180.971 166.289 183.128 164.794 185.332 163.376C187.536 161.958 189.84 160.694 192.156 159.465C193.338 158.874 194.52 158.283 195.666 157.692L199.211 155.984L206.301 152.634C208.665 151.523 211.028 150.383 213.434 149.355C214.616 148.835 215.849 148.333 217.084 147.884C218.325 147.406 219.621 147.088 220.944 146.938C223.562 146.823 226.184 146.876 228.797 147.098C226.189 147.045 223.58 147.138 220.984 147.376C219.712 147.56 218.469 147.907 217.286 148.41C216.104 148.888 214.893 149.426 213.711 149.975C208.984 152.197 204.305 154.507 199.6 156.782L196.055 158.454C194.874 159.045 193.693 159.583 192.552 160.18C190.23 161.361 187.955 162.632 185.716 163.949C183.476 165.267 181.296 166.709 179.216 168.257C177.073 169.763 175.073 171.464 173.243 173.338Z" fill="#5A3022"/>
<path d="M274.463 246.439C274.422 246.683 274.374 246.925 274.328 247.172C274.369 246.93 274.417 246.683 274.457 246.439H274.463Z" fill="#EBEBEB"/>
<path d="M194.502 223.656L223.49 225.464V219.355L194.502 219.289V223.656Z" fill="#DBDBDB"/>
<path d="M137.649 219.302C137.649 219.302 139.882 231.52 144.349 231.514H192.209C196.689 231.514 198.904 219.296 198.904 219.296L137.649 219.302Z" fill="#455A64"/>
<g opacity="0.5">
<path opacity="0.5" d="M282.34 130.081C281.749 134.902 278.252 138.654 274.21 141.047C271.847 142.448 268.833 142.915 266.693 144.634C264.679 146.253 263.983 148.983 264.271 151.464C264.909 156.965 269.921 160.954 273.678 164.505C279.469 169.976 286.742 178.514 282.056 186.958C279.864 190.898 275.556 193.505 271.492 195.123C266.937 196.932 262.038 197.671 257.158 197.907C251.515 198.173 245.21 197.368 241.605 202.715C238.38 207.485 238.686 210.987 240.424 216.128C240.424 216.128 238.982 216.49 238.871 216.342C237.216 214.178 235.071 209.843 234.085 207.313C231.88 202.148 231.308 196.707 235.791 192.205C238.415 189.569 241.93 188.11 244.933 185.977C248.827 183.224 250.753 179.4 249.276 174.627C247.75 169.693 243.851 166.071 241.447 161.592C240.329 159.628 239.722 157.416 239.678 155.156C239.635 152.897 240.158 150.663 241.197 148.658C243.077 144.937 246.011 141.854 249.636 139.795C253.742 137.431 258.179 137.012 262.823 136.894C268.071 136.746 274.382 136.445 277.595 131.611C280.756 126.884 279.544 120.858 278.228 115.741C278.174 115.563 278.451 115.469 278.529 115.634C280.608 120.137 282.966 124.964 282.34 130.081Z" fill="white"/>
</g>
<path d="M287.865 208.264H267.072V210.036H287.865V208.264Z" fill="#DBDBDB"/>
<path d="M272.905 211.922H291.399V206.373H272.905V211.922Z" fill="#455A64"/>
<path d="M209.711 202.309C209.711 202.309 211.707 231.514 221.032 231.514H270.38C279.705 231.514 281.701 202.309 281.701 202.309H209.711Z" fill="#263238"/>
<path d="M225.635 208.323H204.842V209.983H225.635V208.323Z" fill="#DBDBDB"/>
<path d="M219.803 211.927H201.309V206.379H219.803V211.927Z" fill="#455A64"/>
<path d="M207.915 239.644H209.492L212.873 232.921H279.829L283.215 239.644H284.792L280.704 231.514H212.009L207.915 239.644Z" fill="#455A64"/>
<path d="M219.886 239.644H221.374L223.686 232.921H269.016L271.332 239.644H272.822L270.504 232.921L270.021 231.514H222.687L222.201 232.921L219.886 239.644Z" fill="#455A64"/>
<path d="M128.632 239.644H130.216L133.596 232.921H200.546L203.932 239.644H205.509L201.421 231.514H132.727L128.632 239.644Z" fill="#455A64"/>
<path d="M140.604 239.644H142.092L144.403 232.921H189.74L192.05 239.644H193.539L191.229 232.921L190.738 231.514H143.404L142.92 232.921L140.604 239.644Z" fill="#455A64"/>
</g>
</g>
<rect x="0.5" y="0.5" width="401" height="265" rx="16.5" stroke="#F1F1F1"/>
<defs>
<clipPath id="clip0_440_9909">
<rect x="1" y="1" width="400" height="264" rx="16" fill="white"/>
</clipPath>
<clipPath id="clip1_440_9909">
<rect width="380" height="551.72" fill="white" transform="translate(11 -15)"/>
</clipPath>
</defs>
</svg>
