<svg width="402" height="266" viewBox="0 0 402 266" fill="none" xmlns="http://www.w3.org/2000/svg">
<g clip-path="url(#clip0_440_10111)">
<rect x="1" y="1" width="400" height="264" rx="16" fill="white"/>
<g clip-path="url(#clip1_440_10111)">
<path d="M102.851 119.933C119.859 128.684 129.489 162.543 119.889 189.467C109.451 218.572 79.1626 223.16 62.0945 216.293C43.9413 208.993 39.0675 188.491 47.8383 176.622C56.3032 165.168 69.6913 162.139 73.6574 151.533C75.5516 146.462 75.6305 136.961 78.1266 129.345C80.8398 120.85 92.5802 114.644 102.851 119.933Z" fill="black"/>
<path d="M109.362 124.826C115.911 132.332 120.868 141.089 123.934 150.566C125.466 155.314 126.391 160.237 126.687 165.217C126.817 167.709 126.784 170.208 126.588 172.696C126.37 175.179 126.018 177.649 125.533 180.095C123.559 189.823 119.208 199.314 112.065 206.367C108.513 209.886 104.364 212.745 99.8121 214.812C95.2682 216.84 90.4087 218.069 85.4473 218.444C95.3232 217.34 104.519 212.875 111.493 205.796C118.399 198.772 122.612 189.487 124.497 179.887C124.994 177.486 125.359 175.058 125.592 172.617C125.795 170.172 125.842 167.717 125.73 165.266C125.444 160.362 124.583 155.507 123.165 150.803C121.736 146.086 119.835 141.524 117.492 137.188C115.188 132.814 112.466 128.674 109.362 124.826Z" fill="#121313"/>
<path d="M75.9761 139.043C75.7372 141.787 75.2551 144.504 74.5357 147.162C73.7678 149.836 72.5862 152.373 71.0333 154.68C69.4454 156.98 67.4369 158.958 65.1137 160.511C62.8051 162.021 60.536 163.471 58.3457 165.128C53.8577 168.194 50.0272 172.125 47.0789 176.692C44.2179 181.369 43.0155 186.873 43.6653 192.319C43.1508 189.604 43.114 186.818 43.5568 184.091C43.7781 182.721 44.135 181.375 44.6223 180.075C45.0951 178.767 45.6793 177.503 46.3685 176.297C49.1113 171.423 53.2747 167.585 57.6945 164.3C59.9145 162.652 62.2526 161.192 64.5415 159.712C66.7949 158.239 68.7662 156.374 70.3625 154.207C73.6083 149.895 75.0291 144.459 75.9761 139.043Z" fill="#262D31"/>
<path d="M86.1774 122.833C87.8448 122.271 89.7194 113.096 83.7998 108.459C77.8803 103.822 69.9876 108.616 72.9473 116.292C74.8515 121.166 82.6356 124.017 86.1774 122.833Z" fill="#262D31"/>
<path d="M75.3449 107.659C73.4969 109.095 72.1921 111.116 71.6451 113.392C71.3686 114.449 71.3743 115.56 71.6617 116.614C71.9491 117.669 72.5081 118.629 73.2829 119.4C74.9367 120.965 76.9815 122.055 79.2025 122.557C80.3356 122.838 81.4909 123.019 82.6554 123.1C83.8327 123.222 85.0224 123.132 86.1677 122.833C85.0764 123.386 83.8781 123.696 82.6554 123.741C81.4323 123.826 80.2033 123.763 78.9952 123.553C76.4927 123.194 74.1647 122.063 72.3357 120.317C71.4006 119.4 70.7453 118.236 70.4467 116.961C70.1479 115.686 70.218 114.352 70.6487 113.115C71.0201 111.935 71.6281 110.842 72.4353 109.904C73.2428 108.966 74.2327 108.202 75.3449 107.659Z" fill="#262D31"/>
<path d="M89.1471 182.641C97.4444 204.001 115.065 236.577 126.638 234.881C137.214 233.332 158.425 211.449 167.532 204.001C176.638 196.551 151.243 175.162 146.073 179.829C138.062 187.06 126.342 199.649 123.984 199.225C121.093 198.702 116.683 192.319 98.2336 174.274C90.7059 166.885 85.6053 173.574 89.1471 182.641Z" fill="#943E21"/>
<path d="M155.535 169.084C159.984 166.825 164.917 163.875 170.117 163.293C175.316 162.711 180.525 169.015 180.782 170.969C181.038 172.922 180.673 185.432 175.484 186.102C170.294 186.774 172.198 176.968 171.863 175.922C171.527 174.876 171.152 173.514 170.186 173.741C169.219 173.968 153.137 184.337 153.137 184.337L155.535 169.084Z" fill="#943E21"/>
<path d="M155.959 169.755C156.245 169.755 169.446 162.425 174.645 161.863C179.844 161.3 185.054 167.575 185.31 169.538C185.567 171.502 185.201 183.992 180.002 184.673C174.803 185.353 176.727 175.537 176.391 174.491C176.056 173.445 175.681 172.084 174.714 172.311C173.747 172.538 157.666 182.897 157.666 182.897L155.959 169.755Z" fill="#943E21"/>
<path d="M178.157 184.229C177.485 183.369 177.049 182.35 176.894 181.269C176.64 180.177 176.557 179.052 176.648 177.934C176.816 176.956 176.905 175.967 176.914 174.975C176.778 174.014 176.405 173.102 175.829 172.321C175.336 171.65 174.605 171.995 173.974 172.321C173.06 172.82 172.174 173.371 171.32 173.968C170.393 174.59 169.475 175.231 168.558 175.863C167.586 176.489 166.654 177.175 165.766 177.915C165.697 177.973 165.766 178.092 165.845 178.053C166.699 177.586 167.529 177.076 168.331 176.523C169.248 175.931 170.186 175.349 171.123 174.777C172.06 174.205 172.84 173.662 173.728 173.139C174.111 172.84 174.561 172.637 175.04 172.547C175.444 172.547 175.77 173.534 175.898 173.84C176.236 174.745 176.302 175.73 176.085 176.671C175.933 177.65 175.877 178.642 175.918 179.631C175.944 180.553 176.138 181.463 176.49 182.315C176.912 183.063 177.426 183.755 178.019 184.377C178.088 184.425 178.246 184.308 178.157 184.229Z" fill="#5A3022"/>
<path d="M141.269 185.531C141.269 185.531 153.936 170.545 156.6 167.545C161.918 161.547 185.872 147.912 189.355 147.084C192.837 146.255 195.048 153.309 178.848 163.056C170.314 168.197 169.386 173.583 169.968 176.435C170.55 179.287 173.915 184.328 178.769 183.528C183.623 182.729 185.803 175.3 190.134 173.939C194.466 172.577 192.601 181.102 190.085 186.212C187.39 191.183 183.339 195.289 178.404 198.05C174.457 200.162 162.224 207.413 162.224 207.413L141.269 185.531Z" fill="#943E21"/>
<path d="M184.284 179.345C182.646 180.993 180.821 183.084 178.444 183.489C176.066 183.893 174.162 182.503 172.751 180.638C171.231 178.821 170.465 176.491 170.61 174.126C170.897 171.966 171.802 169.935 173.215 168.275C174.944 166.258 176.958 164.504 179.193 163.066C179.292 162.997 179.193 162.859 179.075 162.918C176.983 164.201 170.432 167.93 169.85 174.225C169.717 176.639 170.515 179.012 172.08 180.855C173.402 182.641 175.207 184.287 177.565 184.18C180.456 184.031 182.607 181.397 184.472 179.394C184.511 179.305 184.373 179.256 184.284 179.345Z" fill="#5A3022"/>
<path d="M141.022 183.695L166.9 214.28C166.9 214.28 135.25 237.86 125.187 236.034C115.124 234.209 96.931 208.409 87.7557 184.91C78.5804 161.409 94.7112 168.759 101.479 175.507C108.247 182.255 123.066 197.982 123.727 197.666C124.388 197.35 141.022 183.695 141.022 183.695Z" fill="#F15A2F"/>
<path d="M42.3628 265.247C44.9773 266.235 122.277 249.009 122.277 249.009L114.946 222.094C114.946 222.094 119.879 213.886 118.35 205.608C116.278 194.539 97.2172 175.389 95.6585 174.235C89.5613 169.627 83.9772 168.68 78.5411 171.156C55.9186 181.467 42.3628 265.247 42.3628 265.247Z" fill="#F15A2F"/>
<path d="M111.582 222.005C108.602 222.216 105.637 222.601 102.703 223.16C101.243 223.436 99.8022 223.801 98.3717 224.206C97.6909 224.393 97.0101 224.6 96.3293 224.817C95.6486 225.033 94.8693 225.39 94.1195 225.607C94.0405 225.607 94.0603 225.755 94.1195 225.735C94.8396 225.547 95.5795 225.479 96.3097 225.33L98.4802 224.876C99.9305 224.58 101.391 224.295 102.841 223.979C105.751 223.356 108.642 222.764 111.572 222.242C111.789 222.213 111.73 221.986 111.582 222.005Z" fill="#262D31"/>
<path d="M258.702 283.391C257.154 282.119 224.172 262.297 217.108 258.273C210.044 254.247 202.881 250.38 195.63 246.67C188.379 242.961 181.068 239.468 173.609 236.261C166.151 233.055 158.741 230.095 151.085 227.668C150.099 227.362 149.112 227.047 148.126 226.681C148.037 226.681 147.997 226.801 148.126 226.83C152.003 228.162 155.782 229.79 159.57 231.319C163.359 232.847 167.019 234.427 170.699 236.073C178.078 239.369 185.34 242.891 192.532 246.581C199.724 250.271 206.779 254.129 213.774 258.124C220.769 262.12 227.842 266.313 234.748 270.457C238.231 272.549 257.567 283.282 258.485 283.678C258.663 283.756 258.871 283.529 258.702 283.391Z" fill="#262D31"/>
<path d="M261.563 278.27C253.464 300.519 141.081 351.831 141.081 351.831L122.06 292.744L173.649 270.753L64.3442 254.721L109.303 231.861C109.303 231.861 130.505 237.505 138.516 236.123C143.666 235.236 215.629 224.926 229.944 228.487C261.563 236.36 268.983 257.858 261.563 278.27Z" fill="#262D31"/>
<path d="M199.369 257.266C197.188 258.174 195.065 259.218 193.016 260.393C190.825 261.499 188.614 262.574 186.425 263.679H186.356L187.826 262.485C189.522 261.153 191.081 259.673 192.886 258.49C193.006 258.421 192.886 258.252 192.779 258.322C190.943 259.476 188.99 260.472 187.253 261.794C186.445 262.417 185.645 263.048 184.866 263.719C184.442 264.084 184.018 264.449 183.603 264.833C183.416 265.01 183.208 265.189 183.031 265.385C182.044 265.909 181.058 266.441 180.071 266.994C177.891 268.217 175.819 269.618 173.629 270.822C173.52 270.891 173.629 271.058 173.747 271C175.888 269.915 178.137 269.026 180.298 267.961C182.459 266.895 184.659 265.711 186.799 264.527C188.94 263.343 190.972 262.18 193.064 261.025C195.259 259.962 197.384 258.762 199.428 257.434C199.497 257.355 199.458 257.237 199.369 257.266Z" fill="black"/>
<path d="M302.359 311.844L239.346 341.185L146.152 295.141C146.152 295.141 124.793 311.697 101.854 315.998C86.2464 318.958 59.865 316.699 47.2071 298.575C36.5519 283.303 42.8463 265.346 42.8463 265.346L60.7233 257.217C60.7233 257.217 102.772 227.135 129.094 224.402C169.258 220.219 302.359 311.844 302.359 311.844Z" fill="#262D31"/>
<path d="M76.4201 246.818C73.8649 248.338 71.3885 249.975 68.8727 251.554C66.357 253.132 63.8412 254.514 61.4733 256.249C59.1055 257.986 56.7574 259.871 54.4685 261.765C53.3635 262.683 52.2684 263.601 51.193 264.556C50.0741 265.467 49.0223 266.456 48.0458 267.516C47.9669 267.625 48.1148 267.764 48.2135 267.704C49.4114 266.965 50.5615 266.152 51.6567 265.268C52.8603 264.389 54.0541 263.492 55.2578 262.603C57.5664 260.887 59.9244 259.23 62.233 257.513C64.5415 255.796 66.6825 253.912 68.9516 252.185C71.3885 250.331 73.9439 248.623 76.4596 246.878C76.509 246.868 76.4695 246.789 76.4201 246.818Z" fill="black"/>
<path d="M258.702 283.391C257.154 282.119 224.172 262.297 217.108 258.273C210.044 254.247 202.881 250.38 195.63 246.67C188.379 242.961 181.068 239.468 173.609 236.261C166.151 233.055 158.741 230.095 151.085 227.668C150.099 227.362 149.112 227.047 148.126 226.681C148.037 226.681 147.997 226.801 148.126 226.83C152.003 228.162 155.782 229.79 159.57 231.319C163.359 232.847 167.019 234.427 170.699 236.073C178.078 239.369 185.34 242.891 192.532 246.581C199.724 250.271 206.779 254.129 213.774 258.124C220.769 262.12 227.842 266.313 234.748 270.457C238.231 272.549 257.567 283.282 258.485 283.678C258.663 283.756 258.871 283.529 258.702 283.391Z" fill="#23282C"/>
<path d="M82.9707 172.35C83.1287 173.751 88.6141 183.38 94.8888 183.815C96.931 183.953 98.184 172.824 98.184 172.824L98.4701 172.025L102.416 160.817L88.0912 149.195C88.0912 149.195 82.9115 171.748 82.9707 172.35Z" fill="#943E21"/>
<path d="M102.387 160.817L98.4409 171.936C91.0513 169.124 87.4305 163.056 85.7632 159.11L88.0126 149.185L102.387 160.817Z" fill="black"/>
<path d="M119.514 143.976C121.803 164.694 109.648 168.384 105.189 168.877C101.144 169.321 87.2821 170.308 82.8721 149.955C78.4621 129.601 87.3611 121.985 96.5857 120.485C105.81 118.985 117.235 123.257 119.514 143.976Z" fill="#943E21"/>
<path d="M82.9017 151.059C84.2673 150.459 85.4537 149.514 86.3443 148.317C87.235 147.121 87.7995 145.713 87.9827 144.232C91.6966 142.773 94.9553 140.352 97.4243 137.218C97.2665 137.642 96.1319 140.71 95.5104 142.259C108.849 140.286 113.338 130.312 113.338 130.312C115.782 132.739 117.647 135.686 118.794 138.934C118.794 138.934 119.198 130.815 115.232 125.211C113.954 123.259 112.179 121.684 110.089 120.647C107.999 119.61 105.671 119.149 103.344 119.311C100.103 118.397 96.6761 118.373 93.4227 119.241C90.1693 120.109 87.2099 121.837 84.8553 124.244C75.9067 133.311 82.9017 151.059 82.9017 151.059Z" fill="black"/>
<path d="M105.663 140.454C103.484 141.536 101.156 142.288 98.7563 142.683C102.52 141.811 105.964 139.905 108.701 137.178C109.865 136.016 110.879 134.714 111.72 133.301C112.697 131.785 113.367 130.092 113.693 128.319C113.693 128.292 113.704 128.267 113.722 128.249C113.741 128.23 113.766 128.22 113.792 128.22C113.818 128.22 113.843 128.23 113.862 128.249C113.88 128.267 113.891 128.292 113.891 128.319C113.771 130.103 113.351 131.854 112.648 133.498C111.873 135.098 110.817 136.545 109.53 137.77C108.378 138.846 107.079 139.753 105.672 140.464" fill="black"/>
<path d="M86.3354 151.148C86.3354 151.148 81.6391 144.755 78.7287 146.442C75.8183 148.129 79.4489 157.472 82.9415 158.686C83.3772 158.871 83.8457 158.967 84.3191 158.968C84.7927 158.969 85.2615 158.874 85.6977 158.69C86.1341 158.506 86.5289 158.236 86.8588 157.897C87.1885 157.557 87.4467 157.154 87.6179 156.713L86.3354 151.148Z" fill="#943E21"/>
<path d="M79.8535 149.096V149.185C82.3004 150.112 83.6321 152.332 84.5793 154.651C84.4298 154.409 84.2295 154.202 83.9926 154.044C83.7555 153.887 83.4873 153.782 83.2061 153.738C82.9249 153.694 82.6375 153.712 82.3636 153.789C82.0899 153.866 81.8359 154.002 81.6195 154.187C81.6097 154.199 81.6038 154.214 81.6023 154.229C81.6009 154.245 81.6039 154.261 81.6113 154.274C81.6188 154.288 81.63 154.299 81.6438 154.306C81.6574 154.314 81.6732 154.317 81.6886 154.315C82.1116 154.169 82.5693 154.159 82.9988 154.284C83.4282 154.409 83.8081 154.665 84.086 155.016C84.5523 155.605 84.9527 156.243 85.2798 156.92C85.3982 157.127 85.783 157.009 85.6941 156.762V156.703C85.6745 153.605 83.1684 149.333 79.8535 149.096Z" fill="#262D31"/>
<path d="M71.1909 193.444C77.9589 215.445 102.328 255.076 115.153 257.433C129.952 260.156 177.397 237.909 186.188 229.532C189.681 226.198 165.844 203.97 161.267 206.358C142.087 216.392 124.763 222.518 121.911 221.097C117.58 218.907 98.2926 197.745 85.8517 184.683C70.2142 168.276 68.1522 183.577 71.1909 193.444Z" fill="#943E21"/>
<path d="M184.984 230.372C187.086 229.305 200.77 216.332 204.598 210.59C208.737 204.613 211.875 198.002 213.891 191.016C217.019 179.957 218.134 172.025 216.604 168.729C214.828 164.911 214.385 164.309 206.177 183.045C201.529 193.65 196.024 195.486 191.11 196.039C179.028 197.383 167.444 201.605 157.33 208.351C157.33 208.351 176.924 234.495 184.984 230.372Z" fill="#943E21"/>
<path d="M222.426 154.749L200.573 191.175C200.254 191.676 199.802 192.078 199.266 192.334C198.731 192.59 198.135 192.692 197.544 192.625L178.513 188.935C178.276 188.9 178.053 188.801 177.866 188.651C177.679 188.501 177.536 188.303 177.451 188.079C177.366 187.855 177.341 187.614 177.381 187.377C177.42 187.141 177.521 186.919 177.674 186.735L199.537 150.31C199.853 149.809 200.305 149.409 200.839 149.154C201.373 148.899 201.967 148.8 202.557 148.869L221.588 152.559C221.823 152.593 222.047 152.689 222.235 152.839C222.421 152.988 222.565 153.184 222.651 153.408C222.735 153.631 222.76 153.873 222.721 154.109C222.682 154.345 222.58 154.566 222.426 154.749Z" fill="#23282C"/>
<path d="M219.88 152.224L200.849 148.534C200.26 148.465 199.663 148.564 199.13 148.821C198.594 149.078 198.143 149.481 197.829 149.984L175.967 186.399C175.814 186.584 175.713 186.805 175.673 187.042C175.634 187.278 175.659 187.521 175.744 187.745C175.829 187.969 175.973 188.165 176.159 188.315C176.346 188.466 176.569 188.564 176.806 188.6L195.837 192.319C196.426 192.388 197.022 192.289 197.557 192.031C198.091 191.775 198.542 191.371 198.856 190.869L220.719 154.453C220.884 154.271 220.994 154.046 221.039 153.805C221.086 153.563 221.064 153.314 220.977 153.084C220.891 152.854 220.743 152.652 220.549 152.5C220.356 152.348 220.125 152.253 219.88 152.224ZM198.333 189.477C198.046 189.945 197.634 190.324 197.146 190.571C196.655 190.818 196.107 190.924 195.56 190.878L178.512 187.573C177.526 187.396 177.259 186.468 177.832 185.512L198.244 151.592C199.419 149.619 200.218 149.698 201.204 149.886L204.607 150.546C204.805 150.546 204.845 150.823 204.687 151.079L204.628 151.198C204.263 151.8 204.628 151.878 205.051 151.957L212.945 153.487C213.159 153.58 213.402 153.584 213.62 153.499C213.838 153.414 214.014 153.247 214.109 153.033L214.178 152.924C214.237 152.804 214.328 152.702 214.44 152.631C214.554 152.559 214.685 152.521 214.818 152.52L218.232 153.181C219.22 153.368 219.802 153.783 218.725 155.568L198.333 189.477Z" fill="#262D31"/>
<path d="M210.488 152.174L208.337 151.76C208.321 151.757 208.305 151.75 208.292 151.739C208.279 151.728 208.268 151.714 208.263 151.698C208.257 151.682 208.255 151.665 208.258 151.648C208.261 151.631 208.267 151.615 208.279 151.602C208.3 151.57 208.332 151.544 208.369 151.529C208.405 151.513 208.446 151.508 208.485 151.513L210.636 151.928C210.652 151.929 210.668 151.935 210.682 151.945C210.695 151.954 210.705 151.968 210.712 151.983C210.718 151.999 210.719 152.016 210.716 152.032C210.714 152.048 210.706 152.063 210.695 152.076C210.673 152.11 210.642 152.137 210.606 152.155C210.57 152.172 210.529 152.179 210.488 152.174Z" fill="white"/>
<path d="M218.686 155.568L198.333 189.477C198.046 189.945 197.636 190.324 197.146 190.571C196.655 190.818 196.107 190.924 195.56 190.878L178.513 187.573C177.526 187.396 177.26 186.468 177.832 185.512L198.244 151.592C199.419 149.619 200.218 149.698 201.204 149.886L204.607 150.546C204.805 150.546 204.845 150.823 204.687 151.079L204.628 151.198C204.263 151.799 204.628 151.878 205.053 151.957L212.945 153.487C213.159 153.579 213.402 153.584 213.62 153.499C213.838 153.414 214.014 153.247 214.109 153.033L214.178 152.924C214.238 152.804 214.328 152.704 214.442 152.632C214.555 152.561 214.686 152.522 214.82 152.52L218.232 153.181C219.14 153.368 219.762 153.783 218.686 155.568Z" fill="#D1E1EB"/>
<path d="M216.891 155.815C216.871 155.845 216.842 155.869 216.81 155.885C216.776 155.9 216.74 155.907 216.703 155.904C216.692 155.897 216.682 155.887 216.674 155.875C216.667 155.863 216.663 155.849 216.663 155.835C216.663 155.821 216.667 155.807 216.674 155.795C216.682 155.782 216.692 155.773 216.703 155.766C216.722 155.736 216.748 155.711 216.779 155.696C216.811 155.68 216.846 155.673 216.881 155.677C216.892 155.684 216.901 155.694 216.907 155.706C216.914 155.717 216.919 155.73 216.919 155.744C216.92 155.757 216.919 155.77 216.913 155.782C216.908 155.795 216.901 155.806 216.891 155.815Z" fill="white"/>
<path d="M216.654 156.229C216.633 156.259 216.604 156.283 216.572 156.299C216.539 156.314 216.502 156.321 216.466 156.318C216.45 156.318 216.435 156.312 216.422 156.303C216.409 156.294 216.401 156.281 216.395 156.266C216.389 156.251 216.389 156.235 216.393 156.219C216.396 156.204 216.405 156.19 216.417 156.18C216.437 156.149 216.465 156.125 216.498 156.109C216.531 156.093 216.568 156.087 216.604 156.091C216.664 156.101 216.693 156.16 216.654 156.229Z" fill="white"/>
<path d="M216.417 156.624C216.398 156.655 216.37 156.679 216.335 156.693C216.302 156.707 216.265 156.711 216.23 156.703C216.161 156.703 216.14 156.634 216.181 156.575C216.201 156.545 216.229 156.521 216.262 156.505C216.294 156.489 216.331 156.483 216.367 156.486C216.427 156.496 216.457 156.555 216.417 156.624Z" fill="white"/>
<path d="M203.522 151.188H203.473C203.452 151.139 203.42 151.097 203.378 151.064C203.337 151.031 203.288 151.009 203.237 151C203.1 150.981 202.962 151.005 202.841 151.069V151.01H202.901H203.039C203.087 151 203.138 151 203.188 151.01H203.355C203.387 151.005 203.42 151.005 203.454 151.01L203.512 151.059V151.129L203.522 151.188Z" fill="white"/>
<path d="M202.862 151.217V151.168C202.946 151.121 203.042 151.101 203.138 151.109C203.192 151.106 203.244 151.12 203.291 151.148C203.336 151.176 203.372 151.218 203.394 151.267H203.316C203.301 151.232 203.278 151.202 203.249 151.18C203.22 151.157 203.185 151.143 203.147 151.138C203.047 151.134 202.946 151.162 202.862 151.217Z" fill="white"/>
<path d="M203.178 151.346H203.089C203.083 151.328 203.073 151.312 203.06 151.3C203.045 151.288 203.028 151.28 203.01 151.277C202.965 151.263 202.917 151.263 202.872 151.277V151.217C203.01 151.217 203.178 151.237 203.178 151.346Z" fill="white"/>
<path d="M200.218 150.665C200.238 150.629 200.268 150.6 200.305 150.58C200.343 150.561 200.383 150.553 200.424 150.556C200.442 150.558 200.459 150.564 200.474 150.575C200.487 150.585 200.498 150.599 200.506 150.615C200.513 150.631 200.516 150.649 200.513 150.666C200.511 150.684 200.504 150.7 200.494 150.714C200.469 150.748 200.437 150.776 200.398 150.793C200.36 150.81 200.318 150.817 200.277 150.813C200.26 150.812 200.244 150.806 200.231 150.796C200.218 150.786 200.207 150.773 200.202 150.757C200.194 150.742 200.193 150.725 200.196 150.709C200.199 150.692 200.206 150.677 200.218 150.665Z" fill="white"/>
<path d="M200.681 150.744C200.703 150.708 200.737 150.68 200.775 150.662C200.814 150.644 200.856 150.639 200.898 150.645C200.914 150.646 200.93 150.652 200.943 150.662C200.958 150.672 200.968 150.685 200.974 150.701C200.98 150.716 200.981 150.733 200.978 150.749C200.975 150.766 200.968 150.781 200.958 150.793C200.935 150.829 200.903 150.857 200.863 150.875C200.825 150.893 200.782 150.898 200.74 150.892C200.724 150.891 200.708 150.885 200.695 150.875C200.681 150.865 200.671 150.852 200.664 150.836C200.658 150.821 200.657 150.804 200.66 150.788C200.663 150.771 200.67 150.756 200.681 150.744Z" fill="white"/>
<path d="M201.115 150.823C201.138 150.789 201.169 150.763 201.205 150.745C201.242 150.728 201.282 150.721 201.323 150.724C201.339 150.727 201.355 150.735 201.368 150.746C201.38 150.757 201.39 150.771 201.396 150.787C201.403 150.802 201.405 150.819 201.402 150.836C201.399 150.853 201.391 150.869 201.381 150.882C201.359 150.915 201.327 150.942 201.291 150.959C201.255 150.977 201.214 150.984 201.175 150.981C201.157 150.977 201.143 150.97 201.13 150.959C201.117 150.948 201.106 150.934 201.101 150.918C201.095 150.903 201.093 150.885 201.095 150.869C201.098 150.852 201.105 150.836 201.115 150.823Z" fill="white"/>
<path d="M201.54 150.882C201.56 150.847 201.592 150.819 201.628 150.801C201.665 150.784 201.707 150.778 201.746 150.783C201.764 150.783 201.781 150.787 201.796 150.796C201.81 150.806 201.823 150.819 201.831 150.835C201.838 150.85 201.839 150.868 201.838 150.885C201.835 150.902 201.828 150.918 201.816 150.931C201.793 150.967 201.761 150.996 201.722 151.013C201.684 151.031 201.64 151.037 201.599 151.03C201.582 151.029 201.566 151.023 201.553 151.013C201.54 151.003 201.53 150.99 201.524 150.974C201.517 150.959 201.515 150.942 201.518 150.926C201.521 150.91 201.528 150.894 201.54 150.882Z" fill="white"/>
<path d="M197.1 188.363L195.403 188.027L195.541 187.8L197.238 188.136L197.1 188.363Z" fill="#EBEBEB"/>
<path d="M196.764 188.916L195.067 188.59L195.205 188.363L196.903 188.689L196.764 188.916Z" fill="#EBEBEB"/>
<path d="M196.439 189.477L194.732 189.142L194.871 188.916L196.567 189.25L196.439 189.477Z" fill="#EBEBEB"/>
<path d="M193.549 195.634C188.497 196.373 203.611 183.963 203.108 178.171C202.604 172.38 197.189 174.915 193.242 178.744C179.351 192.033 167.69 193 161.296 204.799C154.903 216.599 193.549 195.634 193.549 195.634Z" fill="#943E21"/>
<path d="M177.328 190.612C174.139 191.87 171.122 193.527 168.35 195.545C165.894 197.563 163.854 200.039 162.342 202.836C162.273 202.955 162.441 203.083 162.52 202.964C166.002 197.321 171.813 193.966 177.397 190.74C177.407 190.728 177.413 190.713 177.415 190.697C177.416 190.683 177.413 190.667 177.406 190.652C177.398 190.639 177.387 190.628 177.373 190.62C177.359 190.613 177.344 190.61 177.328 190.612Z" fill="#5A3022"/>
<path d="M122.8 219.569C126.874 220.121 153.315 209.032 153.315 209.032L173.58 244.283C173.58 244.283 127.279 261.617 115.637 259.209C103.995 256.802 81.6983 221.196 73.2136 199.925C65.242 179.927 70.5203 165.503 88.0816 185.009C88.0915 185.009 120.679 219.272 122.8 219.569Z" fill="#F15A2F"/>
<path d="M114.897 258.134C104.933 254.572 90.1535 231.042 87.2726 226.415C85.4474 223.455 83.7308 220.437 82.0438 217.388C78.6598 211.311 75.473 205.115 72.3949 198.879C72.382 198.86 72.3626 198.846 72.3404 198.84C72.318 198.833 72.2941 198.836 72.2729 198.844C72.2518 198.855 72.2345 198.871 72.2243 198.891C72.2142 198.913 72.2116 198.936 72.2173 198.958C74.1017 203.832 76.2327 208.636 78.5808 213.333C77.2186 211.64 75.9537 209.871 74.7923 208.036C74.743 207.956 74.5949 208.036 74.6444 208.133C75.8647 210.34 77.3417 212.392 79.0445 214.251C81.4419 218.956 84.0563 223.554 86.878 228.004C87.687 229.287 105.002 258.203 115.815 259.692C119.564 260.216 131.866 257.72 134.422 256.734C134.53 256.734 134.54 256.556 134.422 256.565C130.85 256.969 118.459 259.407 114.897 258.134Z" fill="#AD4B2F"/>
<path d="M153.335 209.09C151.075 209.486 131.176 216.935 126.776 218.542C125.744 219.039 124.631 219.343 123.49 219.441C122.337 219.252 121.288 218.661 120.53 217.772C118.843 216.283 100.039 197.163 98.7366 196.276C98.2434 195.94 97.8882 195.9 98.3913 196.521C99.2496 197.577 117.59 216.491 119.218 217.95C120.846 219.41 122.178 220.763 124.378 220.377C125.365 220.21 152.21 210.404 153.502 209.653C153.769 209.496 153.69 209.032 153.335 209.09Z" fill="#AD4B2F"/>
<path d="M171.764 31H124.055C117.949 31 113 35.9493 113 42.0545V89.7636C113 95.8689 117.949 100.818 124.055 100.818H171.764C177.869 100.818 182.818 95.8689 182.818 89.7636V42.0545C182.818 35.9493 177.869 31 171.764 31Z" fill="black"/>
<path d="M168.273 65.8152V62.9062C168.273 54.9248 161.803 48.4545 153.821 48.4545H141.997C134.016 48.4545 127.545 54.9248 127.545 62.9062V65.8152H168.273Z" fill="#FFAD41"/>
<path d="M147.909 48.4545H141.997C134.016 48.4545 127.545 54.9248 127.545 62.9062V65.8152H147.909V48.4545Z" fill="#FF9811"/>
<path d="M134.818 60.0909C135.622 60.0909 136.273 59.4397 136.273 58.6364C136.273 57.833 135.622 57.1818 134.818 57.1818C134.015 57.1818 133.364 57.833 133.364 58.6364C133.364 59.4397 134.015 60.0909 134.818 60.0909Z" fill="#804C09"/>
<path d="M142.091 55.7273C142.894 55.7273 143.545 55.0761 143.545 54.2727C143.545 53.4694 142.894 52.8182 142.091 52.8182C141.287 52.8182 140.636 53.4694 140.636 54.2727C140.636 55.0761 141.287 55.7273 142.091 55.7273Z" fill="#804C09"/>
<path d="M161 60.0909C161.803 60.0909 162.455 59.4397 162.455 58.6364C162.455 57.833 161.803 57.1818 161 57.1818C160.197 57.1818 159.545 57.833 159.545 58.6364C159.545 59.4397 160.197 60.0909 161 60.0909Z" fill="#BD720D"/>
<path d="M153.727 55.7273C154.531 55.7273 155.182 55.0761 155.182 54.2727C155.182 53.4694 154.531 52.8182 153.727 52.8182C152.924 52.8182 152.273 53.4694 152.273 54.2727C152.273 55.0761 152.924 55.7273 153.727 55.7273Z" fill="#BD720D"/>
<path d="M147.909 60.0909C148.712 60.0909 149.364 59.4397 149.364 58.6364C149.364 57.833 148.712 57.1818 147.909 57.1818C147.106 57.1818 146.455 57.833 146.455 58.6364C146.455 59.4397 147.106 60.0909 147.909 60.0909Z" fill="#BD720D"/>
<path d="M147.909 57.1818C147.106 57.1818 146.455 57.833 146.455 58.6364C146.455 59.4397 147.106 60.0909 147.909 60.0909" fill="#804C09"/>
<path d="M163.909 67.3636H131.909C129.499 67.3636 127.545 69.3174 127.545 71.7273C127.545 74.1372 129.499 76.0909 131.909 76.0909H163.909C166.319 76.0909 168.273 74.1372 168.273 71.7273C168.273 69.3174 166.319 67.3636 163.909 67.3636Z" fill="#FF5023"/>
<path d="M147.909 67.3636H131.909C129.499 67.3636 127.545 69.3174 127.545 71.7273C127.545 74.1372 129.499 76.0909 131.909 76.0909H147.909V67.3636Z" fill="#BD3C1A"/>
<path d="M171.182 79C171.182 81.4099 169.228 83.3636 166.818 83.3636H129C126.59 83.3636 124.636 81.4099 124.636 79C124.636 76.5901 126.59 74.6364 129 74.6364H166.818C169.228 74.6364 171.182 76.5901 171.182 79Z" fill="#FFAD41"/>
<path d="M147.909 74.6364H129C126.59 74.6364 124.636 76.5901 124.636 79C124.636 81.4099 126.59 83.3636 129 83.3636H147.909V74.6364Z" fill="#FF9811"/>
<path d="M133.364 68.8182L147.909 67.3636L162.455 68.8182L147.909 79L133.364 68.8182Z" fill="#FFE98F"/>
<path d="M133.364 68.8182L147.909 67.3636V79L133.364 68.8182Z" fill="#FFDA44"/>
<path d="M171.182 66.6363C171.182 67.8413 170.205 68.8182 169 68.8182H126.818C125.613 68.8182 124.636 67.8413 124.636 66.6363C124.636 65.4314 125.613 64.4545 126.818 64.4545H169C170.205 64.4545 171.182 65.4314 171.182 66.6363Z" fill="#91DC5A"/>
<path d="M147.909 64.4545H126.818C125.613 64.4545 124.636 65.4314 124.636 66.6363C124.636 67.8413 125.613 68.8182 126.818 68.8182H147.909V64.4545Z" fill="#64C37D"/>
<path d="M342.818 31H295.109C289.004 31 284.055 35.9493 284.055 42.0545V89.7636C284.055 95.8689 289.004 100.818 295.109 100.818H342.818C348.924 100.818 353.873 95.8689 353.873 89.7636V42.0545C353.873 35.9493 348.924 31 342.818 31Z" fill="black"/>
<path d="M335.588 62.5844C335.588 62.5844 328.145 67.5715 318.964 67.5715C309.783 67.5715 302.34 62.5844 302.34 62.5844C302.34 53.4035 309.783 50.9481 318.964 50.9481C328.145 50.9481 335.588 53.4035 335.588 62.5844Z" fill="#802812"/>
<path d="M325.612 49.2857V45.961H318.963V42.6364H312.315V49.2857H305.665V79.2078H312.315V72.5584H318.963V75.883H325.612V79.2078H332.262V49.2857H325.612Z" fill="#FFDA44"/>
<path d="M312.315 49.2857H305.665V79.2079H312.315V49.2857Z" fill="#FFAD41"/>
<path d="M318.964 42.6364H312.315V72.5584H318.964V42.6364Z" fill="#FFDA44"/>
<path d="M325.613 45.961H318.964V75.8831H325.613V45.961Z" fill="#FFE98F"/>
<path d="M332.262 49.2857H325.612V79.2079H332.262V49.2857Z" fill="#FFDA44"/>
<path d="M329.479 62.5844C327.611 66.5155 323.605 69.2338 318.964 69.2338C314.322 69.2338 310.317 66.5155 308.449 62.5844H302.34L305.665 89.1818H332.263L335.588 62.5844H329.479Z" fill="#FF5023"/>
<path d="M318.964 69.2338C314.322 69.2338 310.317 66.5155 308.449 62.5844H302.34L305.665 89.1818H318.964C318.964 89.1818 318.964 75.7722 318.964 69.2338Z" fill="#BD3C1A"/>
<path d="M318.964 82.5325C322.636 82.5325 325.612 81.0439 325.612 79.2077C325.612 77.3716 322.636 75.8831 318.964 75.8831C315.291 75.8831 312.315 77.3716 312.315 79.2077C312.315 81.0439 315.291 82.5325 318.964 82.5325Z" fill="white"/>
<path d="M318.964 82.5325C315.291 82.5325 312.315 81.0439 312.315 79.2077C312.315 77.3715 315.291 75.8831 318.964 75.8831" fill="#FFE98F"/>
<path d="M261.655 41.3273H205.218C199.113 41.3273 194.164 46.2766 194.164 52.3818V108.818C194.164 114.923 199.113 119.873 205.218 119.873H261.655C267.76 119.873 272.709 114.923 272.709 108.818V52.3818C272.709 46.2766 267.76 41.3273 261.655 41.3273Z" fill="black"/>
<path d="M233.437 95.7273C241.47 95.7273 247.982 89.215 247.982 81.1818C247.982 73.1486 241.47 66.6364 233.437 66.6364C225.403 66.6364 218.891 73.1486 218.891 81.1818C218.891 89.215 225.403 95.7273 233.437 95.7273Z" fill="#FFE98F"/>
<path d="M219.618 84.0909C221.627 84.0909 223.255 82.4628 223.255 80.4545C223.255 78.4462 221.627 76.8182 219.618 76.8182C217.61 76.8182 215.982 78.4462 215.982 80.4545C215.982 82.4628 217.61 84.0909 219.618 84.0909Z" fill="#FFE98F"/>
<path d="M221.073 78.2727C223.082 78.2727 224.709 76.6447 224.709 74.6364C224.709 72.6281 223.082 71 221.073 71C219.064 71 217.437 72.6281 217.437 74.6364C217.437 76.6447 219.064 78.2727 221.073 78.2727Z" fill="#FFE98F"/>
<path d="M225.436 73.9091C227.445 73.9091 229.073 72.281 229.073 70.2727C229.073 68.2644 227.445 66.6364 225.436 66.6364C223.427 66.6364 221.8 68.2644 221.8 70.2727C221.8 72.281 223.427 73.9091 225.436 73.9091Z" fill="#FFE98F"/>
<path d="M247.255 84.0909C249.263 84.0909 250.891 82.4628 250.891 80.4545C250.891 78.4462 249.263 76.8182 247.255 76.8182C245.246 76.8182 243.618 78.4462 243.618 80.4545C243.618 82.4628 245.246 84.0909 247.255 84.0909Z" fill="#FFE98F"/>
<path d="M245.8 78.2727C247.809 78.2727 249.436 76.6447 249.436 74.6364C249.436 72.6281 247.809 71 245.8 71C243.791 71 242.164 72.6281 242.164 74.6364C242.164 76.6447 243.791 78.2727 245.8 78.2727Z" fill="#FFE98F"/>
<path d="M241.436 73.9091C243.445 73.9091 245.073 72.281 245.073 70.2727C245.073 68.2644 243.445 66.6364 241.436 66.6364C239.427 66.6364 237.8 68.2644 237.8 70.2727C237.8 72.281 239.427 73.9091 241.436 73.9091Z" fill="#FFE98F"/>
<path d="M230.527 71C232.536 71 234.164 69.3719 234.164 67.3636C234.164 65.3553 232.536 63.7273 230.527 63.7273C228.519 63.7273 226.891 65.3553 226.891 67.3636C226.891 69.3719 228.519 71 230.527 71Z" fill="#FFE98F"/>
<path d="M236.345 71C238.354 71 239.982 69.3719 239.982 67.3636C239.982 65.3553 238.354 63.7273 236.345 63.7273C234.337 63.7273 232.709 65.3553 232.709 67.3636C232.709 69.3719 234.337 71 236.345 71Z" fill="#FFE98F"/>
<path d="M233.436 65.1817C232.773 64.2986 231.717 63.7273 230.527 63.7273C228.658 63.7273 227.121 65.1369 226.916 66.9507C226.463 66.7492 225.963 66.6364 225.436 66.6364C223.428 66.6364 221.8 68.2644 221.8 70.2727C221.8 70.5553 221.834 70.8302 221.895 71.0944C221.63 71.0333 221.355 71 221.073 71C219.064 71 217.436 72.6281 217.436 74.6364C217.436 75.5607 217.783 76.4042 218.35 77.0458C216.967 77.5606 215.982 78.8922 215.982 80.4545C215.982 82.3133 217.377 83.8452 219.178 84.0633C220.514 90.7162 226.389 95.7273 233.436 95.7273C233.436 88.697 233.436 74.1516 233.436 65.1817Z" fill="#FFDA44"/>
<path d="M252.346 81.1818H214.528C213.323 81.1818 212.346 82.1587 212.346 83.3636C212.346 84.5686 213.323 85.5455 214.528 85.5455H215.982C215.982 90.6748 219.776 94.9161 224.709 95.6221V98.6364H242.164V95.6221C247.098 94.9161 250.891 90.6746 250.891 85.5455H252.346C253.55 85.5455 254.528 84.5686 254.528 83.3636C254.528 82.1587 253.55 81.1818 252.346 81.1818Z" fill="#91DC5A"/>
<path d="M214.528 81.1818C213.323 81.1818 212.346 82.1587 212.346 83.3636C212.346 84.5686 213.323 85.5455 214.528 85.5455H215.982C215.982 90.6748 219.776 94.9161 224.709 95.6221V98.6364H233.437V81.1818H214.528Z" fill="#64C37D"/>
<path d="M237.8 76.8182L233.437 72.4545V52.0909H237.8V76.8182Z" fill="#BD3C1A"/>
<path d="M236.19 75.3596L240.28 76.8797L248.388 55.0672L244.298 53.5469L236.19 75.3596Z" fill="#FF5023"/>
<path d="M243.057 80.503C243.508 79.6145 243.764 78.6102 243.764 77.5455C243.764 73.9306 240.833 71 237.218 71C235.809 71 234.504 71.447 233.437 72.2048V80.503H243.057Z" fill="#FFE98F"/>
<path d="M215.419 136.122C214.271 137.331 212.244 136.397 212.417 134.739L215.694 103.347C215.817 102.158 217.074 101.443 218.159 101.943L236.614 110.446C237.701 110.946 237.973 112.366 237.15 113.233L215.419 136.122Z" fill="black"/>
</g>
</g>
<rect x="0.5" y="0.5" width="401" height="265" rx="16.5" stroke="#F1F1F1"/>
<defs>
<clipPath id="clip0_440_10111">
<rect x="1" y="1" width="400" height="264" rx="16" fill="white"/>
</clipPath>
<clipPath id="clip1_440_10111">
<rect width="320" height="349.091" fill="white" transform="translate(41 31)"/>
</clipPath>
</defs>
</svg>
