<svg width="140" height="30" viewBox="0 0 140 30" fill="none" xmlns="http://www.w3.org/2000/svg">
<g clip-path="url(#clip0_440_12771)">
<path d="M30.6719 23.0108V6.76092C30.6719 6.13537 30.8899 5.60461 31.3259 5.16862C31.7619 4.73264 32.2926 4.51465 32.9182 4.51465C33.5437 4.51465 34.0697 4.73264 34.4963 5.16862C34.9322 5.60461 35.1502 6.13537 35.1502 6.76092V12.7604H43.4244V6.76092C43.4244 6.13537 43.6424 5.60461 44.0784 5.16862C44.5144 4.73264 45.0451 4.51465 45.6707 4.51465C46.2962 4.51465 46.8223 4.73264 47.2487 5.16862C47.6847 5.60461 47.9027 6.13537 47.9027 6.76092V23.0108C47.9027 23.6363 47.6847 24.1671 47.2487 24.6031C46.8223 25.0296 46.2962 25.2428 45.6707 25.2428C45.0451 25.2428 44.5144 25.0296 44.0784 24.6031C43.6424 24.1671 43.4244 23.6363 43.4244 23.0108V16.8976H35.1502V23.0108C35.1502 23.6363 34.9322 24.1671 34.4963 24.6031C34.0697 25.0296 33.5437 25.2428 32.9182 25.2428C32.2926 25.2428 31.7619 25.0296 31.3259 24.6031C30.8899 24.1671 30.6719 23.6363 30.6719 23.0108ZM53.5775 16.0445H60.2452C60.1126 15.0304 59.7571 14.2248 59.179 13.6276C58.6103 13.0305 57.871 12.732 56.9611 12.732C56.0513 12.732 55.3025 13.0305 54.7149 13.6276C54.1367 14.2153 53.7576 15.0209 53.5775 16.0445ZM62.8043 23.5226C61.3163 24.7926 59.5107 25.4277 57.3876 25.4277C55.0277 25.4277 53.08 24.6741 51.5445 23.1671C50.0091 21.6601 49.2414 19.722 49.2414 17.3525V17.2956C49.2414 15.817 49.5636 14.4617 50.2081 13.2296C50.8621 11.9975 51.7815 11.0165 52.9662 10.2867C54.151 9.54743 55.4826 9.17781 56.9611 9.17781C57.9658 9.17781 58.8946 9.33415 59.7476 9.64691C60.6007 9.95974 61.3115 10.372 61.8801 10.8838C62.4489 11.3956 62.9322 11.9832 63.3303 12.6467C63.7284 13.3007 64.0174 13.9689 64.1975 14.6512C64.3776 15.3337 64.4677 16.0114 64.4677 16.6843C64.4677 17.3193 64.2686 17.8358 63.8706 18.2339C63.4819 18.6225 62.9938 18.8168 62.4062 18.8168H53.6344C53.8524 19.812 54.2931 20.5702 54.9566 21.0915C55.6295 21.6128 56.4636 21.8734 57.4587 21.8734C58.615 21.8734 59.6623 21.5227 60.6007 20.8214C60.9419 20.5845 61.302 20.466 61.6811 20.466C62.193 20.466 62.6052 20.6319 62.918 20.9635C63.2308 21.2858 63.3871 21.7028 63.3871 22.2146C63.3871 22.6981 63.1929 23.134 62.8043 23.5226ZM68.3085 29.8207C67.4744 29.8207 66.6688 29.6833 65.8916 29.4083C64.9533 29.0861 64.4841 28.4748 64.4841 27.5744C64.4841 27.0531 64.6594 26.6219 65.0101 26.2806C65.3608 25.9395 65.7684 25.7688 66.2328 25.7688C66.5361 25.7688 66.7778 25.8068 66.9578 25.8826C67.3749 26.0058 67.6877 26.0674 67.8962 26.0674C68.3037 26.0674 68.6118 26.0058 68.8203 25.8826C69.0383 25.7594 69.2562 25.5082 69.4743 25.1291L69.6164 24.7879L64.2851 12.4334C64.1334 11.9975 64.0576 11.6562 64.0576 11.4098C64.0576 10.7843 64.2614 10.2772 64.669 9.88865C65.086 9.49057 65.6073 9.29153 66.2328 9.29153C66.7825 9.29153 67.2233 9.43371 67.555 9.718C67.8962 9.9929 68.1663 10.4051 68.3654 10.9549L71.7347 20.0394L75.0046 10.9833C75.4311 9.85541 76.1372 9.29153 77.1229 9.29153C77.701 9.29153 78.1939 9.4858 78.6015 9.87442C79.0185 10.263 79.227 10.7464 79.227 11.3246C79.227 11.6942 79.156 12.0449 79.0138 12.3765L73.5687 25.4561C72.9053 27.0673 72.1897 28.1952 71.422 28.8397C70.6637 29.4937 69.6259 29.8207 68.3085 29.8207ZM80.5657 23.0392V13.258H80.3808C79.869 13.258 79.433 13.0874 79.0729 12.7462C78.7222 12.3956 78.5469 11.9643 78.5469 11.4525C78.5469 10.9406 78.7222 10.5094 79.0729 10.1587C79.433 9.79855 79.869 9.61852 80.3808 9.61852H80.5657V8.62331C80.5657 6.93625 80.9826 5.67569 81.8164 4.84164C82.6317 4.02654 83.8214 3.61899 85.3848 3.61899C86.1434 3.61899 86.7452 3.6569 87.1908 3.73272C87.6081 3.78959 87.9632 3.97915 88.2568 4.3014C88.5601 4.62365 88.7121 5.02645 88.7121 5.50983C88.7121 6.02163 88.5366 6.45762 88.1856 6.81778C87.8451 7.16846 87.4181 7.34381 86.9061 7.34381H86.5227C85.4608 7.34381 84.9302 7.90774 84.9302 9.03563V9.64691H86.8495C87.3614 9.64691 87.7925 9.82225 88.1435 10.1729C88.5034 10.5142 88.6838 10.9406 88.6838 11.4525C88.6838 11.9643 88.5034 12.3956 88.1435 12.7462C87.7925 13.0874 87.3614 13.258 86.8495 13.258H84.9869V23.0392C84.9869 23.6648 84.7742 24.1908 84.3471 24.6173C83.9209 25.0343 83.3952 25.2428 82.7692 25.2428C82.144 25.2428 81.6175 25.0343 81.1912 24.6173C80.7742 24.1908 80.5657 23.6648 80.5657 23.0392ZM95.9644 25.4277C94.3914 25.4277 92.9606 25.0722 91.6714 24.3614C90.3822 23.6411 89.3729 22.6648 88.6434 21.4327C87.913 20.2006 87.5483 18.8405 87.5483 17.3525V17.2956C87.5483 16.1867 87.7618 15.1347 88.188 14.1394C88.6239 13.1443 89.2119 12.2818 89.9512 11.552C90.7001 10.8222 91.6003 10.244 92.6525 9.81756C93.7047 9.39101 94.8273 9.17781 96.0219 9.17781C97.5949 9.17781 99.0265 9.53319 100.315 10.244C101.604 10.9549 102.613 11.9264 103.343 13.1585C104.073 14.3907 104.438 15.7507 104.438 17.2388V17.2956C104.438 18.7742 104.073 20.1342 103.343 21.3759C102.613 22.6174 101.599 23.6032 100.301 24.3329C99.0022 25.0628 97.5569 25.4277 95.9644 25.4277ZM96.0219 21.6033C97.2536 21.6033 98.2347 21.1957 98.9642 20.3806C99.7034 19.5656 100.074 18.5562 100.074 17.3525V17.2956C100.074 16.1108 99.6848 15.0967 98.9076 14.2532C98.1401 13.4097 97.159 12.9879 95.9644 12.9879C94.7327 12.9879 93.7468 13.3954 93.0075 14.2105C92.278 15.0256 91.9133 16.0351 91.9133 17.2388V17.2956C91.9133 18.4803 92.2966 19.4945 93.0642 20.338C93.8414 21.1816 94.8273 21.6033 96.0219 21.6033ZM112.971 25.4277C111.397 25.4277 109.966 25.0722 108.677 24.3614C107.388 23.6411 106.378 22.6648 105.649 21.4327C104.919 20.2006 104.554 18.8405 104.554 17.3525V17.2956C104.554 16.1867 104.767 15.1347 105.193 14.1394C105.63 13.1443 106.217 12.2818 106.957 11.552C107.706 10.8222 108.606 10.244 109.658 9.81756C110.71 9.39101 111.833 9.17781 113.027 9.17781C114.6 9.17781 116.032 9.53319 117.321 10.244C118.609 10.9549 119.619 11.9264 120.349 13.1585C121.079 14.3907 121.443 15.7507 121.443 17.2388V17.2956C121.443 18.7742 121.079 20.1342 120.349 21.3759C119.619 22.6174 118.605 23.6032 117.307 24.3329C116.008 25.0628 114.562 25.4277 112.971 25.4277ZM113.027 21.6033C114.259 21.6033 115.24 21.1957 115.97 20.3806C116.71 19.5656 117.079 18.5562 117.079 17.3525V17.2956C117.079 16.1108 116.69 15.0967 115.913 14.2532C115.146 13.4097 114.164 12.9879 112.971 12.9879C111.738 12.9879 110.753 13.3954 110.013 14.2105C109.283 15.0256 108.919 16.0351 108.919 17.2388V17.2956C108.919 18.4803 109.303 19.4945 110.07 20.338C110.848 21.1816 111.833 21.6033 113.027 21.6033ZM138.009 5.85104V23.0392C138.009 23.6648 137.795 24.1908 137.369 24.6173C136.942 25.0343 136.416 25.2428 135.79 25.2428C135.165 25.2428 134.64 25.0343 134.213 24.6173C133.796 24.1908 133.587 23.6648 133.587 23.0392V22.826C132.355 24.513 130.734 25.3566 128.725 25.3566C127.805 25.3566 126.924 25.1813 126.081 24.8306C125.237 24.4704 124.479 23.9585 123.806 23.2951C123.143 22.6317 122.611 21.7834 122.213 20.7503C121.816 19.7077 121.617 18.5562 121.617 17.2956V17.2388C121.617 15.9782 121.811 14.8314 122.2 13.7982C122.598 12.7557 123.128 11.9027 123.791 11.2392C124.455 10.5758 125.208 10.0687 126.052 9.718C126.895 9.35785 127.787 9.17781 128.725 9.17781C130.659 9.17781 132.28 9.95497 133.587 11.5094V5.85104C133.587 5.22549 133.796 4.70421 134.213 4.28718C134.64 3.86068 135.165 3.64742 135.79 3.64742C136.416 3.64742 136.942 3.86068 137.369 4.28718C137.795 4.70421 138.009 5.22549 138.009 5.85104ZM129.862 12.931C128.801 12.931 127.896 13.3338 127.147 14.1394C126.408 14.9356 126.038 15.9687 126.038 17.2388V17.2956C126.038 18.5562 126.408 19.5893 127.147 20.3949C127.896 21.2005 128.801 21.6033 129.862 21.6033C130.914 21.6033 131.806 21.2053 132.535 20.4091C133.274 19.6035 133.644 18.5657 133.644 17.2956V17.2388C133.644 15.9687 133.274 14.9356 132.535 14.1394C131.806 13.3338 130.914 12.931 129.862 12.931Z" fill="#0AA110"/>
<path d="M8.08781 5.49972C8.08781 3.26633 6.27729 1.45581 4.04391 1.45581C1.81052 1.45581 0 3.26633 0 5.49972V15.3668C0 17.6002 1.81052 19.4108 4.04391 19.4108C6.27729 19.4108 8.08781 17.6002 8.08781 15.3668V5.49972Z" fill="#0AA110"/>
<path d="M16.8227 13.7493C16.8227 11.5159 15.0122 9.70538 12.7788 9.70538C10.5454 9.70538 8.73486 11.5159 8.73486 13.7493V15.3669C8.73486 17.6002 10.5454 19.4108 12.7788 19.4108C15.0122 19.4108 16.8227 17.6002 16.8227 15.3669V13.7493Z" fill="#0AA110"/>
<path d="M25.5575 13.7493C25.5575 11.5159 23.747 9.70538 21.5136 9.70538C19.2802 9.70538 17.4697 11.5159 17.4697 13.7493V23.5355C17.4697 25.7689 19.2802 27.5794 21.5136 27.5794C23.747 27.5794 25.5575 25.7689 25.5575 23.5355V13.7493Z" fill="#0AA110"/>
</g>
<defs>
<clipPath id="clip0_440_12771">
<rect width="140" height="29.844" fill="white"/>
</clipPath>
</defs>
</svg>
