<svg width="72" height="72" viewBox="0 0 72 72" fill="none" xmlns="http://www.w3.org/2000/svg">
<rect width="72" height="72" rx="16" fill="#407BFF" fill-opacity="0.08"/>
<path d="M58.4011 32.0411H35.2921C34.4092 32.0411 33.6934 32.7569 33.6934 33.6399V56.7489C33.6934 57.6318 34.4092 58.3476 35.2921 58.3476H58.4011C59.2841 58.3476 59.9998 57.6318 59.9998 56.7489V33.6399C59.9998 32.7569 59.2841 32.0411 58.4011 32.0411Z" fill="#407BFF"/>
<path opacity="0.25" d="M56.6191 35.4762H37.0742V54.909H56.6191V35.4762Z" fill="white"/>
<path opacity="0.35" d="M41.0391 47.4213H39.0703V52.4687H41.0391V47.4213Z" fill="white"/>
<path opacity="0.35" d="M41.0391 47.4213H39.0703V54.9093H41.0391V47.4213Z" fill="white"/>
<path opacity="0.35" d="M44.4336 43.8843H42.4648V51.3146H44.4336V43.8843Z" fill="white"/>
<path opacity="0.35" d="M44.4336 43.8843H42.4648V54.9092H44.4336V43.8843Z" fill="white"/>
<path opacity="0.35" d="M47.831 46.0599H45.8623V52.0239H47.831V46.0599Z" fill="white"/>
<path opacity="0.35" d="M47.831 46.0599H45.8623V54.9091H47.831V46.0599Z" fill="white"/>
<path opacity="0.35" d="M51.229 43.0049H49.2603V51.0292H51.229V43.0049Z" fill="white"/>
<path opacity="0.35" d="M51.229 43.0049H49.2603V54.909H51.229V43.0049Z" fill="white"/>
<path opacity="0.35" d="M54.6235 38.3378H52.6548V49.5053H54.6235V38.3378Z" fill="white"/>
<path opacity="0.35" d="M54.6235 38.3378H52.6548V54.9092H54.6235V38.3378Z" fill="white"/>
<path opacity="0.2" d="M40.7605 31.9767V46.3689C40.7499 46.7932 40.5712 47.196 40.2638 47.4888C39.9564 47.7815 39.5454 47.9403 39.1211 47.9303H33.6323V33.6365C33.6418 33.1999 33.8193 32.7837 34.1278 32.4745C34.4363 32.1654 34.8521 31.9871 35.2888 31.9767H40.7605Z" fill="black"/>
<path d="M36.7077 14H13.5988C12.7158 14 12 14.7158 12 15.5988V38.7077C12 39.5907 12.7158 40.3065 13.5988 40.3065H36.7077C37.5907 40.3065 38.3065 39.5907 38.3065 38.7077V15.5988C38.3065 14.7158 37.5907 14 36.7077 14Z" fill="#407BFF"/>
<path opacity="0.25" d="M33.6721 28.5362C34.4353 23.8343 31.2423 19.4038 26.5403 18.6406C21.8383 17.8773 17.4079 21.0703 16.6447 25.7723C15.8814 30.4743 19.0744 34.9047 23.7764 35.668C28.4784 36.4312 32.9088 33.2382 33.6721 28.5362Z" fill="white"/>
<path opacity="0.25" d="M25.1464 27.1533L33.6324 28.7622C33.3265 30.3697 32.5697 31.8571 31.4502 33.0505C30.3308 34.244 28.8949 35.0945 27.3103 35.5025C25.7256 35.9106 24.0576 35.8595 22.5009 35.3551C20.9442 34.8508 19.5632 33.914 18.5189 32.6542C17.4746 31.3944 16.8103 29.8636 16.6034 28.2404C16.3965 26.6172 16.6557 24.9686 17.3505 23.4871C18.0454 22.0057 19.1474 20.7524 20.5278 19.8738C21.9082 18.9951 23.5101 18.5272 25.1464 18.5248V27.1533Z" fill="white"/>
<path opacity="0.25" d="M25.1466 27.1533V35.7784C22.8883 35.7306 20.7387 34.7991 19.1595 33.184C17.5804 31.5688 16.6976 29.3988 16.7007 27.14C16.7038 24.8811 17.5926 22.7135 19.1762 21.1027C20.7598 19.4919 22.9119 18.5664 25.1704 18.5248L25.1466 27.1533Z" fill="white"/>
<path opacity="0.25" d="M25.1466 27.1532L20.6016 19.8213C21.276 19.4011 22.0062 19.0777 22.7706 18.8607C23.5341 18.6395 24.3246 18.5252 25.1195 18.5212L25.1466 27.1532Z" fill="white"/>
</svg>
