<svg width="72" height="72" viewBox="0 0 72 72" fill="none" xmlns="http://www.w3.org/2000/svg">
<rect width="72" height="72" rx="16" fill="#F1714E" fill-opacity="0.08"/>
<path d="M32.3714 50.6162V46.7381H34.3087V44.7871H32.3781C32.3781 44.1391 32.3781 43.4876 32.3781 42.8396H36.2631V40.9022H38.2038V42.8294H40.1514V38.9343H45.9872V40.8716H47.9178V38.9343H45.9805V36.9799H42.0888V33.1188H36.2495V35.0595H32.3781V38.9512H34.3053V40.892H32.368V42.8362H30.4272V40.8886H24.5947V38.9512H30.4272V23.3844H32.3781C32.3781 25.2573 32.3781 27.1302 32.3781 29.0031V29.2135H34.3223V25.3353H36.2597V29.2203H38.214V31.1576H47.9382V33.0984H49.8857V35.0561H47.9484V37.0071H49.879V40.9022H51.8299V44.7905H49.8993V48.672H51.8028V50.6162H55.6877V52.557H49.879V56.4419H47.9382V54.5011H44.0363V52.557H42.0955V50.6162H45.9669V48.672H36.2665V50.606H32.3714V50.6162ZM44.0363 44.7803V42.8463H42.1057V44.7769H44.0431V46.7143H47.9178V44.7803H44.0363ZM40.1412 44.7803H38.231V46.7041H40.1548L40.1412 44.7803ZM44.0465 35.0324H45.9703V33.1052H44.0465V35.0324Z" fill="#FC5021"/>
<path d="M14.8672 29.2066V15.6077H28.4627V29.2066H14.8672ZM16.8181 17.5586V27.2658H26.522V17.5586H16.8181Z" fill="#FC5021"/>
<path d="M55.6981 29.2099H42.1025V15.6144H55.6981V29.2099ZM53.7573 17.5585H44.0535V27.2624H53.7573V17.5585Z" fill="#FC5021"/>
<path d="M14.8706 42.8394H28.4695V56.4383H14.8706V42.8394ZM26.5254 44.7903H16.8182V54.4975H26.5254V44.7903Z" fill="#FC5021"/>
<path d="M32.368 23.3842V19.4925H30.4272V15.611H40.1345V19.4857H38.231V21.4333H40.1548V25.3148H38.2174V23.3842H36.2631V21.4434H34.3224V23.3774H32.3646L32.368 23.3842ZM34.319 19.4789H36.2461V17.5585H34.319V19.4789Z" fill="#FC5021"/>
<path d="M24.5846 33.1051V35.0493H28.4696V36.99H22.6439V40.8783H14.874V37.0104H16.7978V38.9342H20.6997V33.1051H24.588H24.5846Z" fill="#FC5021"/>
<path d="M32.3646 50.6127V52.5568H34.3088V54.4976H36.2461V56.4418H30.4272V50.6161H32.3578L32.3646 50.6127Z" fill="#FC5021"/>
<path d="M20.6997 33.105H16.8114V35.0424H14.874V31.1744H20.6929V33.1084L20.6997 33.105Z" fill="#FC5021"/>
<path d="M55.698 36.99H53.7708V33.1119H51.8301V31.1711H55.698V36.99Z" fill="#FC5021"/>
<path d="M24.5879 33.1118V31.1744H28.466V33.105H24.5845L24.5879 33.1118Z" fill="#FC5021"/>
<path d="M51.8231 40.8918V38.9545H53.7537V40.8851H51.8027L51.8231 40.8918Z" fill="#FC5021"/>
<path d="M53.7739 42.8428H55.6977V44.77H53.7739V42.8428Z" fill="#FC5021"/>
<path d="M38.2041 29.2201V27.2827H40.1381V29.2133H38.2007L38.2041 29.2201Z" fill="#FC5021"/>
<path d="M32.3714 46.7379H30.4272V44.7971H32.3578V46.7379H32.3714Z" fill="#FC5021"/>
<path d="M51.8232 48.6719V46.7379H53.7538V48.6685H51.8232V48.6719Z" fill="#FC5021"/>
<path d="M49.8721 35.0561H51.8027V36.9968H49.8721V35.0459V35.0561Z" fill="#FC5021"/>
<path d="M40.1376 54.4976H38.2104V52.5739H40.1376V54.4976Z" fill="#FC5021"/>
<path d="M44.0365 54.501V56.4383H42.106V54.5078H44.0433L44.0365 54.501Z" fill="#FC5021"/>
<path d="M55.6977 56.4451H53.7739V54.5179H55.6977V56.4451Z" fill="#FC5021"/>
<path d="M40.1514 38.9341H38.231V37.0035H40.1649V38.9341H40.1514Z" fill="#FC5021"/>
<path d="M24.5743 25.3183H18.7588V19.5028H24.5743V25.3183Z" fill="#FC5021"/>
<path d="M45.9907 25.3148V19.4993H51.8028V25.3148H45.9907Z" fill="#FC5021"/>
<path d="M18.7588 52.55V46.7379H24.5743V52.5534L18.7588 52.55Z" fill="#FC5021"/>
</svg>
