<svg width="72" height="72" viewBox="0 0 72 72" fill="none" xmlns="http://www.w3.org/2000/svg">
<rect width="72" height="72" rx="16" fill="#047E09" fill-opacity="0.08"/>
<path d="M45.3212 23.7638C40.0899 33.8528 33.1507 42.9595 24.8114 50.6803L12 40.9165C20.3451 33.1974 27.2894 24.0905 32.5246 14L45.3212 23.7638Z" fill="#047E09"/>
<path opacity="0.2" d="M45.3212 23.7638C44.8912 24.5958 44.4477 25.4204 43.9908 26.2378C38.9332 35.3501 32.4592 43.6005 24.8114 50.6803L12 40.9165C20.3451 33.1974 27.2894 24.0905 32.5246 14L45.3212 23.7638Z" fill="white"/>
<path opacity="0.2" d="M34.5275 16.6079C34.4055 16.8547 34.2294 17.0708 34.0124 17.2402C33.7953 17.4096 33.5429 17.5279 33.2739 17.5864C33.0049 17.6448 32.7262 17.6419 32.4584 17.5778C32.1907 17.5138 31.9408 17.3902 31.7274 17.2163C27.1851 25.3437 21.5124 32.7854 14.8789 39.3187C15.1045 39.4771 15.2912 39.6847 15.4249 39.9257C15.5586 40.1668 15.6359 40.435 15.6509 40.7103C15.6659 40.9855 15.6182 41.2606 15.5115 41.5147C15.4047 41.7689 15.2417 41.9955 15.0347 42.1775L23.0191 48.2634C23.4679 47.8544 24.0432 47.6114 24.6493 47.5748C25.2554 47.5381 25.8558 47.71 26.3507 48.0618C32.9847 41.5289 38.6574 34.0872 43.1991 25.9594C42.237 25.2264 41.942 23.7714 42.5119 22.6938L42.5211 22.6773L34.5348 16.5914L34.5275 16.6079ZM33.0615 35.9468C31.5533 37.9205 28.6487 38.2375 26.6824 36.7385C24.716 35.2395 24.4228 32.487 25.9328 30.5078C27.4429 28.5287 30.1789 28.0888 32.1488 29.5915C34.1188 31.0942 34.5806 33.9732 33.0688 35.9468H33.0615Z" fill="black"/>
<g opacity="0.2">
<path opacity="0.2" d="M31.6906 34.2974L32.2202 34.7006L31.9233 35.0891L31.3937 34.6841C31.0107 35.1275 30.5104 35.4574 30.1109 35.538L29.7994 34.9645C30.2195 34.8508 30.598 34.6186 30.8897 34.2956L29.9441 33.5754C29.4164 34.0042 28.8061 34.433 28.1501 33.9309C27.6681 33.5644 27.5233 32.8992 28.0181 32.1075L27.4849 31.7007C27.5838 31.5724 27.6828 31.4423 27.7799 31.3122L28.304 31.7117C28.5758 31.3831 28.9236 31.1258 29.3174 30.9622L29.6491 31.5229C29.3341 31.6554 29.0502 31.852 28.8153 32.1002L29.7682 32.8332C30.296 32.4025 30.8897 31.9481 31.5458 32.4484C32.0259 32.8094 32.1799 33.4874 31.6906 34.2974ZM29.3779 33.1411L28.5367 32.4997C28.3315 32.8753 28.3901 33.1466 28.5991 33.3042C28.808 33.4618 29.0828 33.3536 29.3779 33.1411ZM31.1371 33.0879C30.9062 32.9047 30.6405 33.0384 30.3436 33.2712L31.1793 33.9089C31.3937 33.5131 31.3369 33.2437 31.1335 33.0879H31.1371Z" fill="black"/>
</g>
<path opacity="0.2" d="M43.9965 26.2343C38.9375 35.3482 32.4617 43.6 24.8116 50.6805C24.8116 50.6805 19.3836 42.3992 17.1313 40.8598C17.1313 40.8598 34.6175 34.3708 43.9965 26.2343Z" fill="black"/>
<path d="M57.5556 37.2423C49.0332 44.7623 39.273 50.7497 28.7076 54.9392L20.2778 41.2097C30.843 37.0208 40.6027 31.0333 49.124 23.5128C51.9363 28.0905 54.7469 32.667 57.5556 37.2423Z" fill="#047E09"/>
<path opacity="0.3" d="M57.5555 37.2422C49.0332 44.7622 39.273 50.7496 28.7076 54.9391L25.0663 49.0053C23.4781 46.4092 21.8844 43.8112 20.2852 41.2115C30.8503 37.0225 40.61 31.035 49.1313 23.5145C51.9388 28.091 54.7469 32.6669 57.5555 37.2422Z" fill="white"/>
<path opacity="0.2" d="M50.0658 26.6704C49.8643 26.8585 49.6228 26.9984 49.3594 27.0796C49.096 27.1609 48.8176 27.1812 48.5452 27.1392C48.2728 27.0973 48.0134 26.994 47.7867 26.8372C47.56 26.6805 47.3718 26.4743 47.2364 26.2343C40.0662 32.1742 32.0897 37.067 23.5452 40.7664C23.6985 40.9954 23.7978 41.2563 23.8356 41.5294C23.8734 41.8025 23.8486 42.0805 23.7632 42.3426C23.6778 42.6047 23.5339 42.844 23.3425 43.0424C23.1511 43.2407 22.9171 43.393 22.6582 43.4877L27.9121 52.0384C28.4784 51.8191 29.1026 51.8003 29.681 51.985C30.2594 52.1697 30.7572 52.5468 31.0916 53.0536C39.6368 49.3556 47.6135 44.4627 54.7828 38.5215C54.1487 37.4916 54.3998 36.0274 55.3197 35.2229L55.3344 35.2101L50.086 26.6576L50.0658 26.6704ZM41.7277 44.1786C39.6075 45.476 36.7798 44.7283 35.497 42.6154C34.2143 40.5025 34.9253 37.8343 37.0455 36.5387C39.1658 35.2431 41.878 35.8057 43.1736 37.9259C44.4692 40.0462 43.8553 42.8848 41.7277 44.1786Z" fill="black"/>
<g opacity="0.2">
<path opacity="0.2" d="M41.0384 42.1387L41.3866 42.7068L40.9688 42.9615C40.8552 42.7782 40.7397 42.595 40.6243 42.4007C40.1075 42.6738 39.5247 42.802 39.1161 42.7324C39.0886 42.5162 39.0611 42.2999 39.0318 42.0837C39.4643 42.129 39.9007 42.0488 40.2889 41.8528C40.0824 41.5156 39.876 41.1784 39.6695 40.8412C39.0208 41.0501 38.2988 41.2279 37.8663 40.5242C37.5492 40.0074 37.6537 39.3349 38.4014 38.7759L38.0514 38.2042L38.4673 37.9476L38.8119 38.5102C39.1838 38.302 39.6008 38.1876 40.0268 38.1767C40.0635 38.3911 40.0983 38.6055 40.135 38.8181C39.793 38.8298 39.4569 38.9109 39.1472 39.0563L39.774 40.0789C40.4227 39.8681 41.1392 39.6592 41.5699 40.3611C41.8869 40.8779 41.7843 41.5651 41.0384 42.1387ZM39.2938 40.2291C39.1093 39.9286 38.9261 39.6281 38.7441 39.3275C38.416 39.6043 38.3776 39.8773 38.5113 40.1009C38.6451 40.3244 38.9456 40.3226 39.2938 40.2291ZM40.9523 40.8156C40.8002 40.5663 40.507 40.5902 40.1496 40.691L40.6994 41.5871C41.0366 41.303 41.0861 41.0318 40.9523 40.8156Z" fill="black"/>
</g>
<path opacity="0.2" d="M57.5553 37.2423C49.033 44.7623 39.2728 50.7498 28.7073 54.9392L25.0661 49.0054L24.4302 39.8115C24.4302 39.8115 44.6432 41.2703 57.5553 37.2423Z" fill="black"/>
<path d="M59.9998 55.0361C48.9371 57.6425 37.5066 58.3139 26.2149 57.0207C25.9021 51.6611 25.5881 46.3009 25.2729 40.9401C36.5671 42.2361 48.0004 41.5646 59.0652 38.9554C59.3743 44.3163 59.6858 49.6765 59.9998 55.0361Z" fill="#047E09"/>
<path opacity="0.4" d="M59.9998 55.0361C48.9371 57.6425 37.5066 58.3139 26.2149 57.0207C25.9021 51.6611 25.5881 46.3009 25.2729 40.9401C36.5671 42.2361 48.0004 41.5646 59.0652 38.9554C59.3743 44.3163 59.6858 49.6765 59.9998 55.0361Z" fill="white"/>
<path opacity="0.2" d="M58.3911 42.1772C58.1244 42.2453 57.8458 42.2524 57.5759 42.198C57.3061 42.1437 57.052 42.0293 56.8325 41.8632C56.6129 41.6972 56.4336 41.4839 56.3078 41.2391C56.182 40.9943 56.113 40.7242 56.1059 40.4491C46.981 42.3 37.6395 42.8461 28.3611 42.0709C28.3879 42.3453 28.3521 42.6221 28.2564 42.8806C28.1607 43.1391 28.0075 43.3726 27.8085 43.5633C27.6095 43.754 27.3697 43.8971 27.1074 43.9817C26.845 44.0664 26.5669 44.0904 26.2939 44.0519C26.4906 47.3932 26.6861 50.7346 26.8804 54.0759C27.4832 54.1493 28.0426 54.427 28.4655 54.8629C28.8883 55.2987 29.149 55.8663 29.204 56.4711C38.4824 57.2462 47.8239 56.7002 56.9488 54.8493C56.8774 53.6416 57.79 52.467 58.9793 52.1994H58.9976L58.4094 42.1772H58.3911ZM42.7741 53.6764C40.2928 53.8175 38.1597 51.8219 38.0094 49.3535C37.8592 46.885 39.7632 44.8692 42.2445 44.7281C44.7257 44.587 46.846 46.3774 46.9908 48.8458C47.1355 51.3143 45.2535 53.539 42.7741 53.6764Z" fill="black"/>
<g opacity="0.2">
<path opacity="0.2" d="M43.1221 51.5527L43.1606 52.2161L42.6731 52.2454L42.6346 51.5875C42.1075 51.6023 41.5884 51.4559 41.1466 51.1679C41.2254 50.9645 41.3024 50.761 41.3793 50.5576C41.7396 50.8008 42.1617 50.9362 42.5962 50.948C42.5742 50.5521 42.551 50.1569 42.5265 49.7623C41.8576 49.6395 41.1356 49.4563 41.088 48.6316C41.0532 48.0269 41.4637 47.4844 42.3854 47.3488L42.3469 46.68L42.8344 46.6506L42.8729 47.3085C43.2991 47.2985 43.7211 47.3949 44.1007 47.5889L43.8918 48.2046C43.5853 48.0529 43.251 47.9656 42.9095 47.9481L42.981 49.1466C43.6499 49.2657 44.3811 49.4196 44.4305 50.2461C44.4727 50.8417 44.0585 51.4006 43.1221 51.5527ZM42.4862 49.0439C42.4642 48.6933 42.4434 48.3421 42.4239 47.9902C42.0042 48.0782 41.8393 48.2999 41.854 48.562C41.8686 48.824 42.1417 48.9578 42.4935 49.0439H42.4862ZM43.6719 50.3451C43.6554 50.0555 43.386 49.9364 43.0231 49.8576L43.0836 50.9076C43.5216 50.8142 43.6939 50.6071 43.6719 50.3451Z" fill="black"/>
</g>
</svg>
